<?xml version="1.0" encoding="UTF-8"?>
<svg version="1.1" xmlns="http://www.w3.org/2000/svg" width="432" height="410">
<path d="M0 0 C26.72898712 -1.43833115 50.49546464 7.99815878 71 25 C71.64066406 25.495 72.28132813 25.99 72.94140625 26.5 C79.7553204 32.00619325 84.80191023 39.01862396 90 46 C90.88558594 47.16015625 90.88558594 47.16015625 91.7890625 48.34375 C101.16576884 61.3808818 105.54379073 77.347686 108 93 C108.21914062 91.80246094 108.43828125 90.60492188 108.6640625 89.37109375 C112.30152475 70.3534282 119.02378824 55.34729359 131 40 C131.59425781 39.19691406 132.18851563 38.39382812 132.80078125 37.56640625 C137.54368918 31.32173589 142.6835896 26.61845061 149 22 C149.74636719 21.42765625 150.49273437 20.8553125 151.26171875 20.265625 C170.78911585 5.81070966 191.83815841 -0.59414365 216 0 C216.95481892 24.9313828 209.13587037 48.0859431 194 68 C192.3631925 69.69600022 190.69668928 71.36390677 189 73 C187.97519531 74.05960938 187.97519531 74.05960938 186.9296875 75.140625 C178.2238074 84.07822054 169.25776153 91.52279566 158 97 C157.26265625 97.36738281 156.5253125 97.73476562 155.765625 98.11328125 C146.60106564 102.4447062 136.85756821 104.80942929 127 107 C127 118.88 127 130.76 127 143 C197.785 143.495 197.785 143.495 270 144 C270.69268539 148.84879774 271.13265846 153.02450555 271.16113281 157.84643555 C271.16609772 158.49142502 271.17106262 159.13641449 271.17617798 159.8009491 C271.19065748 161.9128836 271.19757841 164.02474297 271.203125 166.13671875 C271.20595238 166.86553568 271.20877975 167.59435261 271.21169281 168.3452549 C271.22662935 172.20405049 271.23589313 176.06280925 271.24023438 179.92163086 C271.2457039 183.87417621 271.26971554 187.82637449 271.29820633 191.77881145 C271.31698149 194.84777257 271.32204619 197.91665262 271.32357025 200.98566628 C271.32656502 202.4410879 271.33448371 203.89650921 271.34775543 205.3518734 C271.46930953 219.70835864 269.86192163 231.05610495 260 242 C257.49953185 244.36756925 254.95443548 246.23870192 252 248 C251.3709375 248.39960938 250.741875 248.79921875 250.09375 249.2109375 C242.66690314 253.23857368 234.23002476 252.74725813 226 253 C223.71882841 262.07931128 221.46491776 271.16424835 219.26126099 280.26275635 C218.09091702 285.08601739 216.90883493 289.90634707 215.72392464 294.72604752 C214.83141306 298.35889093 213.9443288 301.99289442 213.06884766 305.62988281 C212.20806005 309.20472678 211.33296091 312.77580296 210.44842148 316.344841 C210.11894918 317.68456896 209.79436874 319.02551167 209.47525406 320.36774445 C206.39952153 333.27960436 201.92201848 347.20829198 190.25 354.78515625 C184.03857538 358.2790826 179.41241039 360.11712644 172.27133179 360.14717102 C170.51778885 360.15790398 170.51778885 360.15790398 168.7288208 360.16885376 C167.44980896 360.17154266 166.17079712 360.17423157 164.85302734 360.17700195 C163.48936796 360.18327013 162.12571028 360.18991725 160.76205444 360.19691467 C156.28669414 360.21792 151.81133365 360.22831558 147.3359375 360.23828125 C145.79208992 360.2423305 144.24824252 360.24644747 142.70439529 360.25063133 C135.44820179 360.26967736 128.19201841 360.28390812 120.93580472 360.2922433 C112.57621025 360.30200584 104.21688126 360.32830194 95.85738027 360.36874419 C89.38585709 360.39897153 82.9144097 360.41371853 76.44281733 360.41702431 C72.58258116 360.41936777 68.72262878 360.42823538 64.86246872 360.45348549 C61.2262102 360.47688684 57.59041988 360.48095164 53.95410538 360.47072411 C51.99747944 360.46999821 50.04087664 360.48900544 48.08435059 360.50878906 C36.37768269 360.44024559 27.48174477 357.17183486 19 349 C7.60141735 336.22840626 5.56632492 315.41660244 1.80688477 299.40380859 C-0.70341142 288.81423235 -3.46229664 278.28581992 -6.1875 267.75 C-6.55928774 266.31120902 -6.93103279 264.872407 -7.30273438 263.43359375 C-8.20133229 259.95560223 -9.10050239 256.47775896 -10 253 C-11.12277344 252.97421875 -12.24554688 252.9484375 -13.40234375 252.921875 C-27.09354655 252.46759199 -35.86093932 249.77756615 -46 240 C-51.64893521 233.01162654 -54.29270167 226.93532453 -54.31884766 217.9050293 C-54.33407754 216.68492645 -54.33407754 216.68492645 -54.3496151 215.44017506 C-54.38014808 212.81819389 -54.39737776 210.19632074 -54.4140625 207.57421875 C-54.43100495 205.95104038 -54.44882247 204.32787091 -54.4675293 202.70471191 C-54.53061994 196.69907661 -54.57679022 190.69327319 -54.625 184.6875 C-54.74875 171.260625 -54.8725 157.83375 -55 144 C-7.15 144 40.7 144 90 144 C89.67 131.79 89.34 119.58 89 107 C86.07125 106.2575 83.1425 105.515 80.125 104.75 C60.97739682 99.73903494 46.50323325 91.3196984 32 78 C30.96939453 77.09314453 30.96939453 77.09314453 29.91796875 76.16796875 C24.43509963 71.0959938 20.29944471 64.79963944 16.12207031 58.65136719 C15.18489513 57.27211285 14.23115401 55.90413354 13.2734375 54.5390625 C5.94039808 43.36303986 1.31463688 29.24163234 0 16 C-0.11988281 15.01128906 -0.23976562 14.02257812 -0.36328125 13.00390625 C-0.87396324 8.37085158 -1.0871215 4.56917983 0 0 Z M-18 181 C-18.10087212 183.50924153 -18.13972032 185.99036384 -18.1328125 188.5 C-18.13376923 189.25087891 -18.13472595 190.00175781 -18.13571167 190.77539062 C-18.13639338 192.36588627 -18.13453972 193.95638467 -18.13037109 195.546875 C-18.12502267 197.98964655 -18.13031634 200.43223421 -18.13671875 202.875 C-18.13605797 204.41666707 -18.1347768 205.95833403 -18.1328125 207.5 C-18.13483673 208.23541016 -18.13686096 208.97082031 -18.13894653 209.72851562 C-18.43056513 213.15246342 -18.43056513 213.15246342 -17 216 C-15.66133733 216.09721604 -14.31759083 216.12555386 -12.97540283 216.12584114 C-12.10317959 216.12844889 -11.23095634 216.13105664 -10.33230209 216.13374341 C-9.36315998 216.13151268 -8.39401787 216.12928196 -7.39550781 216.12698364 C-5.86395239 216.12932363 -5.86395239 216.12932363 -4.30145645 216.13171089 C-0.85199831 216.13572569 2.59741646 216.13252939 6.046875 216.12939453 C8.50842312 216.13074836 10.96997103 216.13252819 13.43151855 216.13470459 C19.4402373 216.13880501 25.44893878 216.13818561 31.45765686 216.13529195 C36.33891909 216.13303811 41.22017783 216.13272531 46.10144043 216.13381577 C46.79485653 216.133969 47.48827262 216.13412223 48.20270133 216.13428011 C49.61114407 216.13459982 51.0195868 216.13492403 52.42802954 216.1352527 C65.65040237 216.13810763 78.87276828 216.13482026 92.09513998 216.12945233 C103.45275304 216.12498428 114.81035588 216.12576021 126.16796875 216.13037109 C139.34142856 216.13571662 152.5148823 216.13783294 165.68834305 216.13475883 C167.09174855 216.13444026 168.49515406 216.13412589 169.89855957 216.13381577 C170.93444737 216.13358435 170.93444737 216.13358435 171.9912622 216.13334826 C176.86946111 216.13248304 181.74765618 216.13394609 186.62585449 216.13629532 C193.18551702 216.13938471 199.74516315 216.13720086 206.30482483 216.13140106 C208.72001615 216.13007273 211.13520909 216.13046881 213.55039978 216.13266373 C216.83212491 216.13537237 220.11378678 216.13199762 223.39550781 216.12698364 C224.84922098 216.13032973 224.84922098 216.13032973 226.33230209 216.13374341 C227.20452534 216.13113566 228.07674858 216.12852791 228.97540283 216.12584114 C230.11318113 216.12559761 230.11318113 216.12559761 231.27394485 216.12534916 C233.03112992 216.18688109 233.03112992 216.18688109 234 215 C234.08851529 212.40640678 234.11525945 209.83960309 234.09765625 207.24609375 C234.0962413 206.47064713 234.09482635 205.6952005 234.09336853 204.89625549 C234.08775345 202.40996506 234.07519846 199.9237634 234.0625 197.4375 C234.05748694 195.75586067 234.0529237 194.07421994 234.04882812 192.39257812 C234.03777913 188.26168434 234.02050445 184.13085724 234 180 C202.04110647 179.97721027 170.08221524 179.95950216 138.12331549 179.94893467 C134.35426435 179.94768389 130.58521322 179.94638958 126.81616211 179.94506836 C125.69058911 179.94467489 125.69058911 179.94467489 124.54227727 179.94427348 C112.37618081 179.93991664 100.21008905 179.93202902 88.04399539 179.9228472 C75.56978397 179.91351104 63.09557501 179.90794447 50.62136024 179.90591151 C42.91788797 179.9045362 35.21442899 179.90018521 27.51096081 179.89208353 C21.61392925 179.88619585 15.71690459 179.88554094 9.81987 179.88689232 C7.39339046 179.88661579 4.96691044 179.88460808 2.54043388 179.88079453 C-0.75666802 179.87586414 -4.05371174 179.87699928 -7.35081482 179.87974548 C-8.81138759 179.87537622 -8.81138759 179.87537622 -10.30146688 179.87091869 C-11.17779022 179.87290974 -12.05411356 179.87490079 -12.95699215 179.87695217 C-14.1001402 179.87638259 -14.1001402 179.87638259 -15.26638216 179.8758015 C-17.03026726 179.81201038 -17.03026726 179.81201038 -18 181 Z M29 252 C29.66317078 257.96853705 30.33029484 262.90684998 31.8203125 268.5859375 C31.99988495 269.27778137 32.1794574 269.96962524 32.36447144 270.68243408 C32.94537131 272.91489127 33.53498954 275.14493512 34.125 277.375 C34.53050717 278.92482123 34.93544914 280.47479044 35.33984375 282.02490234 C36.15903076 285.16251319 36.98136433 288.29927566 37.80566406 291.43554688 C38.92647803 295.70795879 40.02549164 299.98569376 41.1171875 304.265625 C41.43671387 305.51424316 41.75624023 306.76286133 42.08544922 308.04931641 C42.68536545 310.39485113 43.28341179 312.74086507 43.87939453 315.08740234 C44.14606934 316.1233252 44.41274414 317.15924805 44.6875 318.2265625 C44.91824219 319.12971191 45.14898437 320.03286133 45.38671875 320.96337891 C45.81729773 322.9750276 45.81729773 322.9750276 47 324 C48.58154848 324.09594225 50.16739125 324.1218796 51.75184631 324.12025452 C53.2936985 324.12231651 53.2936985 324.12231651 54.86669922 324.12442017 C56.57249146 324.11902725 56.57249146 324.11902725 58.31274414 324.11352539 C60.09786659 324.11374443 60.09786659 324.11374443 61.91905212 324.1139679 C65.19163274 324.11338894 68.46417107 324.10835981 71.73674321 324.10139394 C75.15338665 324.09515967 78.57003083 324.09455654 81.98667908 324.09336853 C88.46069267 324.09025543 94.93468946 324.08204233 101.40869564 324.07201904 C108.7773792 324.06085725 116.14606355 324.05534729 123.51475346 324.05032361 C138.67651169 324.03985969 153.83825417 324.02226066 169 324 C170.95977275 319.62205976 172.54651338 315.44298973 173.7175293 310.77685547 C174.01761398 309.59227753 174.31769867 308.40769958 174.62687683 307.18722534 C174.93949966 305.92661285 175.2521225 304.66600037 175.57421875 303.3671875 C175.90589172 302.04386946 176.2379137 300.72063886 176.57026672 299.39749146 C177.26233943 296.63653822 177.95018568 293.87457621 178.63500977 291.11181641 C179.51128381 287.57816382 180.39814231 284.04726879 181.28816509 280.51705742 C181.97444816 277.79001951 182.65510555 275.06160147 183.33408546 272.33273697 C183.81620499 270.39932454 184.3030445 268.46709107 184.78996277 266.53488159 C185.08059097 265.35660797 185.37121918 264.17833435 185.6706543 262.96435547 C185.92807907 261.93067841 186.18550385 260.89700134 186.45072937 259.83200073 C187.15866941 256.66270752 187.15866941 256.66270752 187 252 C134.86 252 82.72 252 29 252 Z " fill="#22C45F" transform="translate(104,36)"/>
<path d="M0 0 C2.91765891 -0.10806144 5.83131125 -0.18732877 8.75 -0.25 C9.575 -0.28351563 10.4 -0.31703125 11.25 -0.3515625 C12.44882812 -0.37089844 12.44882812 -0.37089844 13.671875 -0.390625 C14.4050293 -0.41157227 15.13818359 -0.43251953 15.89355469 -0.45410156 C19.0506285 0.22649154 20.13871291 1.37832177 22 4 C22.28042908 6.69620086 22.3338437 8.93831094 22.171875 11.609375 C22.14401917 12.33618469 22.11616333 13.06299438 22.08746338 13.81182861 C21.9943298 16.12585896 21.87257804 18.43736092 21.75 20.75 C21.68170061 22.32153345 21.61527277 23.89314943 21.55078125 25.46484375 C21.38886365 29.31118964 21.201275 33.15552087 21 37 C21.66 37 22.32 37 23 37 C23 27.1 23 17.2 23 7 C23.66 6.67 24.32 6.34 25 6 C25.02481234 10.87467075 25.0429131 15.74930432 25.05493164 20.62402344 C25.05994473 22.28060548 25.06675689 23.93718313 25.07543945 25.59375 C25.08763793 27.98178189 25.09325867 30.36975502 25.09765625 32.7578125 C25.10281754 33.49242706 25.10797882 34.22704163 25.11329651 34.98391724 C25.11374023 39.09778822 24.80210299 42.96450609 24 47 C24.66 47.33 25.32 47.66 26 48 C26 49.98 26 51.96 26 54 C25.01 54 24.02 54 23 54 C22.67 52.68 22.34 51.36 22 50 C20.35 50 18.7 50 17 50 C17.75 45.25 17.75 45.25 20 43 C20 41.68 20 40.36 20 39 C19.6596875 40.11375 19.6596875 40.11375 19.3125 41.25 C17.60080959 44.83639895 16.46568641 45.96703613 13 48 C9.01782954 48.58532942 5.06768795 48.50472297 1.04956055 48.45410156 C-0.16061234 48.45468567 -1.37078522 48.45526978 -2.61763 48.45587158 C-5.92753931 48.45356554 -9.23644537 48.43353438 -12.54617715 48.40557575 C-16.00814614 48.38053636 -19.47012911 48.37821812 -22.93217468 48.37347412 C-29.48409057 48.36105172 -36.03573884 48.32824035 -42.58753699 48.28807616 C-50.04817446 48.24333532 -57.50882485 48.22136564 -64.96956313 48.20129442 C-80.31319696 48.15950685 -95.65656394 48.08916943 -111 48 C-111.33 48.66 -111.66 49.32 -112 50 C-85.93 50 -59.86 50 -33 50 C-32.67 50.66 -32.34 51.32 -32 52 C-33.49337639 52.0154612 -33.49337639 52.0154612 -35.016922 52.03123474 C-44.39023293 52.12890648 -53.76347656 52.23163467 -63.13667774 52.33933926 C-67.95575988 52.39455063 -72.7748481 52.44796783 -77.59399414 52.49731445 C-82.24298621 52.54498427 -86.89190412 52.59732813 -91.54080772 52.65294075 C-93.31623175 52.67335242 -95.0916761 52.69206747 -96.867136 52.70907402 C-99.35005682 52.73314427 -101.83283749 52.7631953 -104.31567383 52.79467773 C-105.05294708 52.8004332 -105.79022034 52.80618866 -106.54983521 52.81211853 C-109.63110834 52.85665414 -112.05388911 53.01796304 -115 54 C-115 50.37 -115 46.74 -115 43 C-118.63 43 -122.26 43 -126 43 C-126 69.4 -126 95.8 -126 123 C-125.34 123 -124.68 123 -124 123 C-123.67 125.31 -123.34 127.62 -123 130 C-125 129 -125 129 -126.10507202 126.94343567 C-127.23084104 123.2407593 -127.30774929 119.73818188 -127.31884766 115.9050293 C-127.32900091 115.0916274 -127.33915417 114.2782255 -127.3496151 113.44017506 C-127.38014808 110.81819389 -127.39737776 108.19632074 -127.4140625 105.57421875 C-127.43100495 103.95104038 -127.44882247 102.32787091 -127.4675293 100.70471191 C-127.53061994 94.69907661 -127.57679022 88.69327319 -127.625 82.6875 C-127.74875 69.260625 -127.8725 55.83375 -128 42 C-80.15 42 -32.3 42 17 42 C16.67 29.79 16.34 17.58 16 5 C10.72 3.68 5.44 2.36 0 1 C0 0.67 0 0.34 0 0 Z " fill="#2EC362" transform="translate(177,138)"/>
<path d="M0 0 C3.56468133 0.00634799 7.12936396 0.00684622 10.69405007 0.00802541 C17.41183431 0.01110557 24.12960184 0.01927318 30.84737879 0.0293749 C38.50909814 0.04064037 46.17081837 0.0460725 53.83254397 0.05107033 C69.56325967 0.06145946 85.29395879 0.0789931 101.02466226 0.10139394 C101.35466226 1.42139394 101.68466226 2.74139394 102.02466226 4.10139394 C104.00466226 3.77139394 105.98466226 3.44139394 108.02466226 3.10139394 C99.6333147 10.93331832 90.16273855 11.68745104 79.16479897 11.60310292 C77.79700566 11.60689409 76.42921621 11.61240067 75.06143594 11.6194756 C71.37549211 11.63334113 67.69001972 11.62232512 64.00410247 11.60576439 C60.13213805 11.59182937 56.26019867 11.59838332 52.38821816 11.60189748 C45.89049147 11.60459232 39.39295027 11.59118458 32.89526772 11.56794667 C25.39817006 11.54131902 17.90138191 11.53959963 10.40425313 11.55133504 C3.16938738 11.56213643 -4.06536713 11.55590871 -11.30022407 11.54177976 C-14.36941658 11.53604265 -17.43852707 11.53608456 -20.50772071 11.54084516 C-24.12434992 11.54563883 -27.74064271 11.53541527 -31.35720801 11.5138905 C-33.30694832 11.50572847 -35.25673284 11.51214761 -37.20647788 11.51908803 C-43.84663895 11.46309243 -48.93731552 10.92829653 -54.97533774 8.10139394 C-54.21221274 7.50326894 -53.44908774 6.90514394 -52.66283774 6.28889394 C-50.06257649 4.35692872 -50.06257649 4.35692872 -48.79536033 2.50726247 C-45.90288002 0.27297864 -42.68863791 0.5215612 -39.16747642 0.41999745 C-38.34028948 0.38683966 -37.51310254 0.35368186 -36.66084933 0.31951928 C-24.4472864 -0.10672473 -12.21908363 -0.0255195 0 0 Z M-44.97533774 3.10139394 C-44.97533774 3.76139394 -44.97533774 4.42139394 -44.97533774 5.10139394 C-45.63533774 5.10139394 -46.29533774 5.10139394 -46.97533774 5.10139394 C-46.31533774 6.75139394 -45.65533774 8.40139394 -44.97533774 10.10139394 C-27.65935346 10.14818174 -10.343389 10.18341595 6.97264409 10.20501828 C15.01336114 10.21531666 23.05403883 10.2293494 31.09473062 10.25227284 C38.10563729 10.27225086 45.11651546 10.28512083 52.12744981 10.28957093 C55.83728182 10.29217085 59.54703229 10.29825164 63.25683808 10.31285405 C67.40531251 10.32904963 71.55364652 10.3293708 75.70215249 10.32844472 C77.53311471 10.33923055 77.53311471 10.33923055 79.40106606 10.35023427 C85.93417984 10.3344766 91.70910394 9.79906336 98.02466226 8.10139394 C98.02466226 7.44139394 98.02466226 6.78139394 98.02466226 6.10139394 C94.89301218 3.04167656 92.55773073 2.72901198 88.26666665 2.74063039 C87.09160058 2.7365064 85.91653451 2.7323824 84.70586038 2.72813344 C83.42048882 2.73891927 82.13511727 2.7497051 80.81079507 2.76081777 C79.44076454 2.76166417 78.07073265 2.76118863 76.70070291 2.75949025 C72.98399687 2.7586294 69.26758121 2.77626953 65.55094266 2.79721212 C61.66587506 2.815964 57.78080084 2.81772819 53.89569497 2.82128835 C46.53986756 2.8306132 39.18417389 2.85523291 31.82840538 2.88533682 C23.45364199 2.91886714 15.07887221 2.93536339 6.70405841 2.95042312 C-10.52248434 2.98178211 -27.7488969 3.03455114 -44.97533774 3.10139394 Z " fill="#26C45D" transform="translate(188.97533774375916,384.8986060619354)"/>
<path d="M0 0 C71.28 0.495 71.28 0.495 144 1 C144.69268539 5.84879774 145.13265846 10.02450555 145.16113281 14.84643555 C145.16609772 15.49142502 145.17106262 16.13641449 145.17617798 16.8009491 C145.19065748 18.9128836 145.19757841 21.02474297 145.203125 23.13671875 C145.20736607 24.22994414 145.20736607 24.22994414 145.21169281 25.3452549 C145.22662935 29.20405049 145.23589313 33.06280925 145.24023438 36.92163086 C145.2457039 40.87417621 145.26971554 44.82637449 145.29820633 48.77881145 C145.31698149 51.84777257 145.32204619 54.91665262 145.32357025 57.98566628 C145.32656502 59.4410879 145.33448371 60.89650921 145.34775543 62.3518734 C145.53090346 83.98308178 145.53090346 83.98308178 140.39581299 89.82499695 C139.9351947 90.21274796 139.47457642 90.60049896 139 91 C139.0721875 90.32453125 139.144375 89.6490625 139.21875 88.953125 C139.3115625 88.06109375 139.404375 87.1690625 139.5 86.25 C139.5928125 85.36828125 139.685625 84.4865625 139.78125 83.578125 C140.05636313 80.76695165 140.05636313 80.76695165 140 77 C140.66 77 141.32 77 142 77 C142 56.21 142 35.42 142 14 C141.34 14 140.68 14 140 14 C140 13.34 140 12.68 140 12 C97.43 11.67 54.86 11.34 11 11 C11 10.34 11 9.68 11 9 C54.56 9 98.12 9 143 9 C143 6.69 143 4.38 143 2 C95.81 2 48.62 2 0 2 C0 1.34 0 0.68 0 0 Z " fill="#39C363" transform="translate(230,179)"/>
<path d="M0 0 C1.2065625 0.0309375 1.2065625 0.0309375 2.4375 0.0625 C2.4375 1.3825 2.4375 2.7025 2.4375 4.0625 C1.4475 4.5575 1.4475 4.5575 0.4375 5.0625 C0.7675 7.0425 1.0975 9.0225 1.4375 11.0625 C2.4275 11.0625 3.4175 11.0625 4.4375 11.0625 C4.89125 10.4025 5.345 9.7425 5.8125 9.0625 C6.34875 8.4025 6.885 7.7425 7.4375 7.0625 C9.75 6.9375 9.75 6.9375 12.4375 7.0625 C14.44588196 6.42152703 16.44577818 5.75350553 18.4375 5.0625 C21.75 4.375 21.75 4.375 24.4375 4.0625 C24.9325 4.5575 24.9325 4.5575 25.4375 5.0625 C27.45344582 5.29677778 29.475974 5.47586124 31.5 5.625 C33.15708984 5.75068359 33.15708984 5.75068359 34.84765625 5.87890625 C35.70230469 5.93949219 36.55695313 6.00007812 37.4375 6.0625 C36.7775 7.3825 36.1175 8.7025 35.4375 10.0625 C37.85395782 10.22937448 37.85395782 10.22937448 40.4375 10.0625 C41.0975 9.4025 41.7575 8.7425 42.4375 8.0625 C44.12511858 7.45938385 45.83764476 6.92399763 47.5625 6.4375 C48.47257812 6.17710937 49.38265625 5.91671875 50.3203125 5.6484375 C51.36832031 5.35839844 51.36832031 5.35839844 52.4375 5.0625 C52.4375 7.0625 52.4375 7.0625 51.375 8.5625 C48.64707341 10.67444316 45.74565154 11.20483108 42.4375 12.0625 C42.1075 12.3925 41.7775 12.7225 41.4375 13.0625 C39.40710598 13.03027152 37.37621908 12.99438381 35.34765625 12.90234375 C33.19364771 12.87598256 33.19364771 12.87598256 31.4375 15.0625 C31.19234303 17.56625468 31.06416342 19.96799479 31.0234375 22.4765625 C31.00407135 23.20620209 30.9847052 23.93584167 30.9647522 24.68759155 C30.90491578 27.02077502 30.85855577 29.35400773 30.8125 31.6875 C30.77432386 33.26825082 30.73527235 34.84898076 30.6953125 36.4296875 C30.59921122 40.3071223 30.51519588 44.18465449 30.4375 48.0625 C30.1075 48.0625 29.7775 48.0625 29.4375 48.0625 C27.82968365 37.94187028 27.1759444 28.30676111 27.4375 18.0625 C24.1375 17.7325 20.8375 17.4025 17.4375 17.0625 C17.7675 16.4025 18.0975 15.7425 18.4375 15.0625 C20.4175 15.0625 22.3975 15.0625 24.4375 15.0625 C24.5921875 14.1034375 24.5921875 14.1034375 24.75 13.125 C25.0903125 12.1040625 25.0903125 12.1040625 25.4375 11.0625 C26.4275 10.7325 27.4175 10.4025 28.4375 10.0625 C28.4375 10.7225 28.4375 11.3825 28.4375 12.0625 C29.0975 12.0625 29.7575 12.0625 30.4375 12.0625 C29.9425 11.0725 29.9425 11.0725 29.4375 10.0625 C27.25202091 9.59192291 27.25202091 9.59192291 24.6875 9.4375 C23.82640625 9.36273438 22.9653125 9.28796875 22.078125 9.2109375 C19.52446789 9.06738873 16.99454224 9.03490602 14.4375 9.0625 C14.4375 10.7125 14.4375 12.3625 14.4375 14.0625 C13.7775 14.0625 13.1175 14.0625 12.4375 14.0625 C12.4375 12.4125 12.4375 10.7625 12.4375 9.0625 C11.7775 9.0625 11.1175 9.0625 10.4375 9.0625 C9.7775 10.7125 9.1175 12.3625 8.4375 14.0625 C7.1175 14.0625 5.7975 14.0625 4.4375 14.0625 C1.98371071 17.74318393 2.13103786 19.74303719 2.0234375 24.13671875 C2.00407135 24.8205513 1.9847052 25.50438385 1.9647522 26.2089386 C1.90506003 28.38916625 1.85861369 30.56944702 1.8125 32.75 C1.77431057 34.2298405 1.73525826 35.709659 1.6953125 37.18945312 C1.59936798 40.8136005 1.51529849 44.43791257 1.4375 48.0625 C0.7775 48.0625 0.1175 48.0625 -0.5625 48.0625 C-0.5625 36.5125 -0.5625 24.9625 -0.5625 13.0625 C-4.46386035 12.41227327 -7.23403228 11.95193948 -11 12.0625 C-14.97152232 12.11635115 -18.64992226 11.72847068 -22.5625 11.0625 C-22.5625 10.4025 -22.5625 9.7425 -22.5625 9.0625 C-21.2425 9.0625 -19.9225 9.0625 -18.5625 9.0625 C-18.2325 8.0725 -17.9025 7.0825 -17.5625 6.0625 C-14.9225 6.0625 -12.2825 6.0625 -9.5625 6.0625 C-9.2325 6.7225 -8.9025 7.3825 -8.5625 8.0625 C-7.5725 8.3925 -6.5825 8.7225 -5.5625 9.0625 C-5.5625 8.4025 -5.5625 7.7425 -5.5625 7.0625 C-4.9025 6.7325 -4.2425 6.4025 -3.5625 6.0625 C-3.583125 5.258125 -3.60375 4.45375 -3.625 3.625 C-3.54067676 0.16774696 -3.45725304 0.08432324 0 0 Z " fill="#15C55D" transform="translate(198.5625,126.9375)"/>
<path d="M0 0 C0.68835938 0.00451172 1.37671875 0.00902344 2.0859375 0.01367188 C3.76566335 0.02533664 5.44534375 0.04326729 7.125 0.0625 C7.83592356 18.62550407 3.97810272 35.66249005 -4.875 52.0625 C-5.81814127 48.64639775 -5.95565117 45.61115136 -5.875 42.0625 C-4.555 42.3925 -3.235 42.7225 -1.875 43.0625 C-1.875 41.4125 -1.875 39.7625 -1.875 38.0625 C-1.215 38.0625 -0.555 38.0625 0.125 38.0625 C0.125 36.0825 0.125 34.1025 0.125 32.0625 C0.785 32.0625 1.445 32.0625 2.125 32.0625 C1.63 29.0925 1.63 29.0925 1.125 26.0625 C0.135 25.7325 -0.855 25.4025 -1.875 25.0625 C-1.71 23.845625 -1.545 22.62875 -1.375 21.375 C-0.98045459 18.24642164 -0.77630275 15.22081196 -0.875 12.0625 C-1.535 12.0625 -2.195 12.0625 -2.875 12.0625 C-2.875 14.3725 -2.875 16.6825 -2.875 19.0625 C-3.865 19.5575 -3.865 19.5575 -4.875 20.0625 C-5.23616046 18.5850254 -5.58875048 17.10545325 -5.9375 15.625 C-6.23333984 14.38943359 -6.23333984 14.38943359 -6.53515625 13.12890625 C-6.64730469 12.44699219 -6.75945312 11.76507813 -6.875 11.0625 C-5.875 10.0625 -5.875 10.0625 -3.3125 10 C-2.508125 10.020625 -1.70375 10.04125 -0.875 10.0625 C-3.37639602 8.81180199 -5.14892691 8.92947533 -7.9375 8.9375 C-8.83597656 8.93492188 -9.73445313 8.93234375 -10.66015625 8.9296875 C-12.84878893 8.81511777 -12.84878893 8.81511777 -13.875 10.0625 C-16.20797433 10.10342937 -18.54205225 10.10491723 -20.875 10.0625 C-20.875 9.4025 -20.875 8.7425 -20.875 8.0625 C-18.895 7.7325 -16.915 7.4025 -14.875 7.0625 C-14.545 5.7425 -14.215 4.4225 -13.875 3.0625 C-14.535 3.0625 -15.195 3.0625 -15.875 3.0625 C-15.875 3.7225 -15.875 4.3825 -15.875 5.0625 C-16.83212891 5.13597656 -16.83212891 5.13597656 -17.80859375 5.2109375 C-18.63488281 5.28570312 -19.46117187 5.36046875 -20.3125 5.4375 C-21.13621094 5.50710937 -21.95992188 5.57671875 -22.80859375 5.6484375 C-23.49050781 5.78507812 -24.17242187 5.92171875 -24.875 6.0625 C-25.205 6.7225 -25.535 7.3825 -25.875 8.0625 C-28.19656597 8.46979228 -30.5318787 8.80688677 -32.875 9.0625 C-32.545 9.7225 -32.215 10.3825 -31.875 11.0625 C-35.20034757 12.17094919 -37.49682575 11.90704356 -40.875 11.0625 C-33.13535303 4.8848226 -23.40064086 2.96037515 -13.875 1.0625 C-12.91851562 0.87171875 -11.96203125 0.6809375 -10.9765625 0.484375 C-7.3040313 -0.01516325 -3.69668822 -0.04656681 0 0 Z " fill="#28C45F" transform="translate(312.875,35.9375)"/>
<path d="M0 0 C-1.74681293 0.98484108 -3.4975851 1.96266187 -5.25 2.9375 C-6.22453125 3.48277344 -7.1990625 4.02804687 -8.203125 4.58984375 C-12.49853513 6.75554634 -15.946158 7.12643231 -20.74212646 7.14044189 C-21.91404541 7.14615204 -23.08596436 7.15186218 -24.293396 7.15774536 C-25.57554993 7.15886322 -26.85770386 7.15998108 -28.17871094 7.16113281 C-29.54561496 7.1657633 -30.9125177 7.17078827 -32.27941895 7.17617798 C-35.9903442 7.18928273 -39.70125138 7.1957433 -43.41219616 7.20018864 C-45.73262715 7.20312279 -48.05305323 7.20722827 -50.37348175 7.21169281 C-57.63928509 7.22536337 -64.90507717 7.23503189 -72.17089248 7.2388947 C-80.54743851 7.24337293 -88.92382116 7.26091168 -97.30031753 7.2898953 C-103.78200161 7.3115411 -110.26363983 7.32160055 -116.74535966 7.32293582 C-120.61330085 7.32398188 -124.48108838 7.32984697 -128.34899139 7.34775543 C-131.99011229 7.36428616 -135.63096483 7.36636758 -139.27210999 7.35761642 C-141.23625649 7.3564842 -143.20039429 7.37016332 -145.16448975 7.3843689 C-151.83528024 7.35297039 -156.93723251 6.84959841 -163 4 C-163 3.67 -163 3.34 -163 3 C-159.7 3 -156.4 3 -153 3 C-153 3.66 -153 4.32 -153 5 C-135.68400847 5.02339391 -118.3680219 5.04101103 -101.05201817 5.05181217 C-93.01131727 5.05696135 -84.97062622 5.06397773 -76.92993164 5.07543945 C-69.91902517 5.08542846 -62.90812583 5.09186345 -55.89721245 5.09408849 C-52.18740737 5.09538845 -48.47762269 5.09842887 -44.76782417 5.10573006 C-40.61937696 5.11382779 -36.47096486 5.11398843 -32.32250977 5.11352539 C-30.49154755 5.1189183 -30.49154755 5.1189183 -28.62359619 5.12442017 C-22.32862383 5.11682852 -16.24047902 4.83874377 -10 4 C-10 3.34 -10 2.68 -10 2 C-10.99 1.505 -10.99 1.505 -12 1 C-10.56496445 0.63597631 -9.12683494 0.28413409 -7.6875 -0.0625 C-6.48673828 -0.35833984 -6.48673828 -0.35833984 -5.26171875 -0.66015625 C-3 -1 -3 -1 0 0 Z " fill="#51BA6F" transform="translate(297,389)"/>
<path d="M0 0 C1.98 0 3.96 0 6 0 C6.33 1.32 6.66 2.64 7 4 C6.34 4 5.68 4 5 4 C5.66 7.63 6.32 11.26 7 15 C7.185625 13.2984375 7.185625 13.2984375 7.375 11.5625 C7.58125 10.386875 7.7875 9.21125 8 8 C8.66 7.67 9.32 7.34 10 7 C10 9.97 10 12.94 10 16 C11.32 16 12.64 16 14 16 C14.33 14.68 14.66 13.36 15 12 C15.75 14.125 15.75 14.125 16 17 C15.319375 17.969375 14.63875 18.93875 13.9375 19.9375 C13.298125 20.948125 12.65875 21.95875 12 23 C12.68314723 26.0497509 12.68314723 26.0497509 14 29 C14.125 32.375 14.125 32.375 14 35 C12.35 35 10.7 35 9 35 C2.45586439 10.01734161 2.45586439 10.01734161 0 0 Z " fill="#28C45F" transform="translate(94,288)"/>
<path d="M0 0 C0.99 0 1.98 0 3 0 C2.67 11.55 2.34 23.1 2 35 C1.67 35 1.34 35 1 35 C1 45.56 1 56.12 1 67 C1.66 67 2.32 67 3 67 C3 68.65 3 70.3 3 72 C0.525 72.495 0.525 72.495 -2 73 C-1.89244447 64.07252339 -1.77980008 55.14512973 -1.66066074 46.21780014 C-1.60549932 42.07247287 -1.55209023 37.92713847 -1.50268555 33.78173828 C-1.45494189 29.78111963 -1.4025956 25.78058524 -1.34705925 21.78006744 C-1.32668098 20.25387928 -1.3079605 18.72766805 -1.29092598 17.2014389 C-1.2667815 15.06356984 -1.23674106 12.92585876 -1.20532227 10.78808594 C-1.18977798 9.5711908 -1.1742337 8.35429565 -1.15821838 7.1005249 C-1.02784362 4.54563715 -0.75112438 2.42951459 0 0 Z " fill="#25C45F" transform="translate(53,188)"/>
<path d="M0 0 C2.88296929 8.64890786 -3.08507646 22.87459662 -6.9375 30.875 C-9.4598775 35.44803765 -12.39897238 39.22749487 -16 43 C-16.33 42.34 -16.66 41.68 -17 41 C-16.06553465 38.96855359 -15.06775224 36.96466413 -14 35 C-13.34 35 -12.68 35 -12 35 C-11.67 33.35 -11.34 31.7 -11 30 C-13.31 29.67 -15.62 29.34 -18 29 C-17.01 27.515 -17.01 27.515 -16 26 C-13.03 26.33 -10.06 26.66 -7 27 C-7.350625 25.5975 -7.70125 24.195 -8.0625 22.75 C-8.89263102 19.42947592 -9.07310858 17.27185553 -8 14 C-7.34 14 -6.68 14 -6 14 C-6 11.69 -6 9.38 -6 7 C-5.195625 6.773125 -4.39125 6.54625 -3.5625 6.3125 C-2.716875 5.879375 -1.87125 5.44625 -1 5 C-0.10613836 2.45224694 -0.10613836 2.45224694 0 0 Z " fill="#38BF64" transform="translate(314,345)"/>
<path d="M0 0 C8.74391941 -0.47052481 16.74227519 0.06041735 25.3125 1.875 C26.14241455 2.04870117 26.9723291 2.22240234 27.82739258 2.40136719 C33.72907759 3.72907759 33.72907759 3.72907759 36 6 C33.03 5.67 30.06 5.34 27 5 C27 5.66 27 6.32 27 7 C20.4 6.67 13.8 6.34 7 6 C7 5.01 7 4.02 7 3 C7.66 2.67 8.32 2.34 9 2 C7.68 1.67 6.36 1.34 5 1 C4.67 2.32 4.34 3.64 4 5 C3.34 5 2.68 5 2 5 C2 5.99 2 6.98 2 8 C4.31 8 6.62 8 9 8 C9 8.99 9 9.98 9 11 C8.01 11.33 7.02 11.66 6 12 C6 11.34 6 10.68 6 10 C4.35 10 2.7 10 1 10 C1 11.98 1 13.96 1 16 C0.67 16 0.34 16 0 16 C-0.19672365 14.27185839 -0.38196799 12.54240803 -0.5625 10.8125 C-0.71912109 9.36810547 -0.71912109 9.36810547 -0.87890625 7.89453125 C-0.99758751 5.05766623 -0.67765639 2.74576329 0 0 Z " fill="#2FC165" transform="translate(104,36)"/>
<path d="M0 0 C0.99 0.33 1.98 0.66 3 1 C3 16.84 3 32.68 3 49 C2.01 49 1.02 49 0 49 C0 32.83 0 16.66 0 0 Z " fill="#12C560" transform="translate(367,191)"/>
<path d="M0 0 C9.92898439 3.74977602 20.85155403 10.17245062 27 19 C23.65949592 17.95012729 22.01355757 17.01425283 19.5625 14.4375 C16.63160495 11.64957544 14.96425299 11.27657579 11 11 C10.67 11.99 10.34 12.98 10 14 C7.6875 14.1875 7.6875 14.1875 5 14 C3.97803008 13.02246356 2.98020375 12.0194119 2 11 C0.96875 10.690625 -0.0625 10.38125 -1.125 10.0625 C-2.07375 9.711875 -3.0225 9.36125 -4 9 C-4.875 6.875 -4.875 6.875 -5 5 C-2.75 4.25 -2.75 4.25 0 4 C1.3743291 5.29103643 2.70896357 6.6256709 4 8 C5.32 8 6.64 8 8 8 C7.01 7.319375 7.01 7.319375 6 6.625 C5.34 6.08875 4.68 5.5525 4 5 C4 4.34 4 3.68 4 3 C2.68 2.34 1.36 1.68 0 1 C0 0.67 0 0.34 0 0 Z " fill="#2AC45E" transform="translate(151,46)"/>
<path d="M0 0 C7.94520275 6.37463942 9.28609958 23.52844505 11 33 C12.32 26.73 13.64 20.46 15 14 C15.33 14 15.66 14 16 14 C16.33 17.63 16.66 21.26 17 25 C16.01 24.67 15.02 24.34 14 24 C14.02320313 24.69867188 14.04640625 25.39734375 14.0703125 26.1171875 C14.09738281 27.48230469 14.09738281 27.48230469 14.125 28.875 C14.14820313 29.77992187 14.17140625 30.68484375 14.1953125 31.6171875 C14 34 14 34 12 36 C11.01 36 10.02 36 9 36 C8.86722656 35.07316406 8.73445312 34.14632812 8.59765625 33.19140625 C8.42105469 31.99386719 8.24445313 30.79632813 8.0625 29.5625 C7.88847656 28.36753906 7.71445313 27.17257813 7.53515625 25.94140625 C7.31014787 23.12044324 7.31014787 23.12044324 6 22 C5.95936168 20.33382885 5.957279 18.66611905 6 17 C5.01 16.67 4.02 16.34 3 16 C3 15.01 3 14.02 3 13 C2.34 13 1.68 13 1 13 C0.67 13.99 0.34 14.98 0 16 C-0.33 16 -0.66 16 -1 16 C-1 14.02 -1 12.04 -1 10 C-0.34 9.67 0.32 9.34 1 9 C1.65555119 6.47266765 1.65555119 6.47266765 2 4 C1.34 4 0.68 4 0 4 C0 2.68 0 1.36 0 0 Z " fill="#4BC16D" transform="translate(201,96)"/>
<path d="M0 0 C1.4391134 0.28359887 2.87625518 0.57721399 4.3125 0.875 C5.11300781 1.03742187 5.91351563 1.19984375 6.73828125 1.3671875 C9 2 9 2 12 4 C12 4.66 12 5.32 12 6 C13.65 6 15.3 6 17 6 C17.33 4.68 17.66 3.36 18 2 C20.31 2.66 22.62 3.32 25 4 C25.33 5.65 25.66 7.3 26 9 C25.01 9.495 25.01 9.495 24 10 C24 9.34 24 8.68 24 8 C22.02 8 20.04 8 18 8 C18 8.99 18 9.98 18 11 C16.0625 10.625 16.0625 10.625 14 10 C13.67 9.34 13.34 8.68 13 8 C10.58380177 7.74969023 10.58380177 7.74969023 8 8 C7.01 9.485 7.01 9.485 6 11 C2.875 11.1875 2.875 11.1875 0 11 C0 10.01 0 9.02 0 8 C1.65 7.67 3.3 7.34 5 7 C5 6.01 5 5.02 5 4 C3.35 3.67 1.7 3.34 0 3 C0 2.01 0 1.02 0 0 Z " fill="#14C55F" transform="translate(144,54)"/>
<path d="M0 0 C0.33 0.66 0.66 1.32 1 2 C-2.9701926 9.99591237 -8.8634728 16.61366727 -15 23 C-15.65613281 23.69609375 -16.31226563 24.3921875 -16.98828125 25.109375 C-19.85639993 28.08190057 -22.19845523 30.28476939 -26 32 C-24 28 -24 28 -22 24 C-20.68 24 -19.36 24 -18 24 C-18 23.01 -18 22.02 -18 21 C-17.01 21 -16.02 21 -15 21 C-15 20.34 -15 19.68 -15 19 C-14.34 19 -13.68 19 -13 19 C-13 18.34 -13 17.68 -13 17 C-13.7425 16.319375 -13.7425 16.319375 -14.5 15.625 C-16 14 -16 14 -16 10 C-15.34 10 -14.68 10 -14 10 C-14 10.66 -14 11.32 -14 12 C-13.34 12 -12.68 12 -12 12 C-12 12.99 -12 13.98 -12 15 C-11.01 15 -10.02 15 -9 15 C-9 13.02 -9 11.04 -9 9 C-8.34 9 -7.68 9 -7 9 C-6.67 8.34 -6.34 7.68 -6 7 C-6.33 6.01 -6.66 5.02 -7 4 C-7 3.34 -7 2.68 -7 2 C-6.401875 1.855625 -5.80375 1.71125 -5.1875 1.5625 C-3.43849596 1.1127561 -1.71322977 0.57107659 0 0 Z " fill="#3DC166" transform="translate(306,88)"/>
<path d="M0 0 C4.95 0 9.9 0 15 0 C15.5323659 18.63280663 11.90477245 35.50427398 3 52 C2.05685873 48.58389775 1.91934883 45.54865136 2 42 C3.32 42.33 4.64 42.66 6 43 C6 41.35 6 39.7 6 38 C6.66 38 7.32 38 8 38 C8 36.02 8 34.04 8 32 C8.66 32 9.32 32 10 32 C10 29.36 10 26.72 10 24 C10.66 24 11.32 24 12 24 C11.98839844 23.36191406 11.97679687 22.72382812 11.96484375 22.06640625 C11.95582031 21.24011719 11.94679688 20.41382812 11.9375 19.5625 C11.92589844 18.73878906 11.91429687 17.91507813 11.90234375 17.06640625 C12 15 12 15 13 14 C13.23481693 11.81707226 13.41363323 9.62796826 13.5625 7.4375 C13.706875 5.313125 13.85125 3.18875 14 1 C9.38 1 4.76 1 0 1 C0 0.67 0 0.34 0 0 Z " fill="#48B96E" transform="translate(305,36)"/>
<path d="M0 0 C0 0.66 0 1.32 0 2 C-6.75 6 -6.75 6 -9 6 C-8.67 7.65 -8.34 9.3 -8 11 C-12.625 15 -12.625 15 -16 15 C-16 14.34 -16 13.68 -16 13 C-17.46573934 13.90477737 -18.92235756 14.82434141 -20.375 15.75 C-21.18710938 16.26046875 -21.99921875 16.7709375 -22.8359375 17.296875 C-25.08555679 19.0673335 -25.95906848 20.36907419 -27 23 C-27.99 23 -28.98 23 -30 23 C-29.64550732 20.19515443 -29.11672043 19.11436245 -27.06640625 17.10546875 C-26.24011719 16.47253906 -25.41382813 15.83960938 -24.5625 15.1875 C-23.66015625 14.49527344 -22.7578125 13.80304687 -21.828125 13.08984375 C-4.11401869 0 -4.11401869 0 0 0 Z " fill="#2BC360" transform="translate(272,47)"/>
<path d="M0 0 C1.32 0 2.64 0 4 0 C6.125 7.625 6.125 7.625 5 11 C4.01 11 3.02 11 2 11 C2 10.01 2 9.02 2 8 C1.34 8 0.68 8 0 8 C0 7.34 0 6.68 0 6 C-0.66 6 -1.32 6 -2 6 C-1.67 7.98 -1.34 9.96 -1 12 C-0.01 12.33 0.98 12.66 2 13 C1.01 13.99 0.02 14.98 -1 16 C-1.33 15.34 -1.66 14.68 -2 14 C-2.99 14 -3.98 14 -5 14 C-5.08159574 9.83861737 -4.98248524 6.0527516 -4 2 C-2.68 2 -1.36 2 0 2 C0 1.34 0 0.68 0 0 Z " fill="#14C55D" transform="translate(292,92)"/>
<path d="M0 0 C1.66611905 -0.042721 3.33382885 -0.04063832 5 0 C5.33 0.33 5.66 0.66 6 1 C9.5 1.16666667 9.5 1.16666667 13 1 C13.33 0.67 13.66 0.34 14 0 C20.46153846 -0.35897436 20.46153846 -0.35897436 24 2 C23.67 3.32 23.34 4.64 23 6 C22.34 5.67 21.68 5.34 21 5 C21 4.34 21 3.68 21 3 C19.700625 3.12375 18.40125 3.2475 17.0625 3.375 C16.33160156 3.44460937 15.60070312 3.51421875 14.84765625 3.5859375 C14.23792969 3.72257813 13.62820312 3.85921875 13 4 C12.67 4.66 12.34 5.32 12 6 C10.68 6 9.36 6 8 6 C8 6.66 8 7.32 8 8 C4.7 7.01 1.4 6.02 -2 5 C2 4 2 4 4 4 C1.525 3.01 1.525 3.01 -1 2 C-0.67 1.34 -0.34 0.68 0 0 Z " fill="#33C163" transform="translate(168,130)"/>
<path d="M0 0 C0.33 0 0.66 0 1 0 C1.07495152 5.1920263 1.12897508 10.38372787 1.16479492 15.57617188 C1.17974968 17.33729549 1.20012096 19.09838274 1.22631836 20.859375 C1.58987485 45.95190136 1.58987485 45.95190136 -3.60473633 51.80957031 C-4.06517334 52.20241211 -4.52561035 52.59525391 -5 53 C-4.9278125 52.32453125 -4.855625 51.6490625 -4.78125 50.953125 C-4.6884375 50.06109375 -4.595625 49.1690625 -4.5 48.25 C-4.36078125 46.92742187 -4.36078125 46.92742187 -4.21875 45.578125 C-3.94363687 42.76695165 -3.94363687 42.76695165 -4 39 C-3.34 39 -2.68 39 -2 39 C-0.99527468 30.63920602 -0.69204567 22.28752587 -0.4375 13.875 C-0.39418869 12.52342758 -0.35057098 11.17186494 -0.30664062 9.8203125 C-0.20142566 6.54695806 -0.09928521 3.27353875 0 0 Z " fill="#67BE6E" transform="translate(374,217)"/>
<path d="M0 0 C1.37344385 4.39844322 0.24307502 7.92504555 -0.9375 12.25 C-1.13279297 12.99507813 -1.32808594 13.74015625 -1.52929688 14.5078125 C-2.01104198 16.34079386 -2.50439225 18.17071818 -3 20 C-3.33 20 -3.66 20 -4 20 C-4.33 17.69 -4.66 15.38 -5 13 C-6.97536745 13.34786708 -6.97536745 13.34786708 -9 14 C-9.33 14.66 -9.66 15.32 -10 16 C-10.33 14.35 -10.66 12.7 -11 11 C-10.01 11 -9.02 11 -8 11 C-8 8.03 -8 5.06 -8 2 C-7.01 2 -6.02 2 -5 2 C-5 4.31 -5 6.62 -5 9 C-3.55052692 7.55052692 -2.89356259 5.83968768 -2 4 C-1.33333333 2.66666667 -0.66666667 1.33333333 0 0 Z " fill="#2CC461" transform="translate(319,325)"/>
<path d="M0 0 C0.66 0.33 1.32 0.66 2 1 C2 2.98 2 4.96 2 7 C3.32 7.33 4.64 7.66 6 8 C5.67 9.32 5.34 10.64 5 12 C3.35 11.67 1.7 11.34 0 11 C-0.19406478 9.35492782 -0.38007935 7.70890406 -0.5625 6.0625 C-0.66691406 5.14597656 -0.77132812 4.22945313 -0.87890625 3.28515625 C-0.91886719 2.53105469 -0.95882812 1.77695313 -1 1 C-0.67 0.67 -0.34 0.34 0 0 Z M5 2 C6.65 2 8.3 2 10 2 C9.67 3.65 9.34 5.3 9 7 C9.66 7 10.32 7 11 7 C11 8.65 11 10.3 11 12 C10.01 12.33 9.02 12.66 8 13 C8 11.35 8 9.7 8 8 C7.34 8 6.68 8 6 8 C5.67 6.02 5.34 4.04 5 2 Z " fill="#13C65B" transform="translate(192,93)"/>
<path d="M0 0 C0.99 0 1.98 0 3 0 C3 1.65 3 3.3 3 5 C2.34 5 1.68 5 1 5 C1.495 5.78375 1.99 6.5675 2.5 7.375 C4 10 4 10 4 12 C5.32 12.33 6.64 12.66 8 13 C8 12.01 8 11.02 8 10 C10.64 10 13.28 10 16 10 C15.67 10.66 15.34 11.32 15 12 C13.68 12 12.36 12 11 12 C11 12.66 11 13.32 11 14 C10.01 14.495 10.01 14.495 9 15 C9.639375 15.268125 10.27875 15.53625 10.9375 15.8125 C13 17 13 17 14 20 C6.79662061 17.81715776 1.58038703 12.44469665 -2 6 C-2 5.01 -2 4.02 -2 3 C-1.34 3 -0.68 3 0 3 C0 2.01 0 1.02 0 0 Z " fill="#44BF69" transform="translate(56,264)"/>
<path d="M0 0 C2.00665479 4.01330958 3.12247575 7.87799297 4.19921875 12.1953125 C4.39852493 12.98396698 4.59783112 13.77262146 4.80317688 14.58517456 C5.22152255 16.24709967 5.63742101 17.90964249 6.05102539 19.57275391 C6.68749503 22.12498005 7.33647296 24.6738099 7.98632812 27.22265625 C8.39138755 28.83835069 8.79571014 30.45423006 9.19921875 32.0703125 C9.39496994 32.83489777 9.59072113 33.59948303 9.79240417 34.38723755 C11.11460181 39.77079638 11.11460181 39.77079638 10 42 C6.70785774 38.70785774 6.65880722 35.7681751 6.3125 31.3671875 C5.90947823 28.31429758 4.86481266 25.76122782 3.69921875 22.9296875 C2.63140938 19.98277224 2.32392931 17.10972133 2 14 C1.34 14 0.68 14 0 14 C0 9.38 0 4.76 0 0 Z " fill="#4FB96D" transform="translate(136,304)"/>
<path d="M0 0 C4.95 0 9.9 0 15 0 C15 0.99 15 1.98 15 3 C15.99 3.33 16.98 3.66 18 4 C18 16.54 18 29.08 18 42 C17.67 42 17.34 42 17 42 C16.505 23.685 16.505 23.685 16 5 C10.72 3.68 5.44 2.36 0 1 C0 0.67 0 0.34 0 0 Z " fill="#5BCB7E" transform="translate(177,138)"/>
<path d="M0 0 C1.32 0 2.64 0 4 0 C4.194957 4.87392506 3.65113004 8.43511106 2 13 C1.63079809 14.99369031 1.28674418 16.99279077 1 19 C1.99 18.67 2.98 18.34 4 18 C4 20.31 4 22.62 4 25 C3.01 25 2.02 25 1 25 C1 23.35 1 21.7 1 20 C0.01 20 -0.98 20 -2 20 C-2 17.69 -2 15.38 -2 13 C-1.01 12.67 -0.02 12.34 1 12 C1.02712066 10.56260487 1.04645067 9.12506137 1.0625 7.6875 C1.07410156 6.88699219 1.08570313 6.08648437 1.09765625 5.26171875 C1.09657855 2.83138666 1.09657855 2.83138666 0 0 Z " fill="#0DC65F" transform="translate(129,295)"/>
<path d="M0 0 C-0.33 0.99 -0.66 1.98 -1 3 C-3.97 2.505 -3.97 2.505 -7 2 C-7 2.66 -7 3.32 -7 4 C-7.95712891 4.07347656 -7.95712891 4.07347656 -8.93359375 4.1484375 C-9.75988281 4.22320312 -10.58617187 4.29796875 -11.4375 4.375 C-12.26121094 4.44460937 -13.08492188 4.51421875 -13.93359375 4.5859375 C-14.61550781 4.72257812 -15.29742187 4.85921875 -16 5 C-16.33 5.66 -16.66 6.32 -17 7 C-19.32156597 7.40729228 -21.6568787 7.74438677 -24 8 C-23.67 8.66 -23.34 9.32 -23 10 C-26.32534757 11.10844919 -28.62182575 10.84454356 -32 10 C-23.55352864 3.25814531 -10.73144687 -0.39672632 0 0 Z " fill="#43C16A" transform="translate(304,37)"/>
<path d="M0 0 C0.66 0 1.32 0 2 0 C2.99 1.98 3.98 3.96 5 6 C5.33 4.35 5.66 2.7 6 1 C6.66 1 7.32 1 8 1 C8.28875 1.61875 8.5775 2.2375 8.875 2.875 C9.93720042 5.13325765 9.93720042 5.13325765 12 7 C12 7.99 12 8.98 12 10 C11.01 10.66 10.02 11.32 9 12 C9.33 13.32 9.66 14.64 10 16 C6.57590889 12.93320535 4.72657315 9.88283477 2.75 5.75 C2.22921875 4.67234375 1.7084375 3.5946875 1.171875 2.484375 C0.78515625 1.66453125 0.3984375 0.8446875 0 0 Z " fill="#3BC168" transform="translate(114,83)"/>
<path d="M0 0 C2.9719385 1.12451727 5.33440687 2.22293791 8 4 C8 4.66 8 5.32 8 6 C8.99 5.67 9.98 5.34 11 5 C11.99 5.66 12.98 6.32 14 7 C14 7.66 14 8.32 14 9 C14.9075 9.226875 15.815 9.45375 16.75 9.6875 C20.44888324 11.18127977 21.77905658 12.75400577 24 16 C14.75712099 13.23120805 6.99903173 7.53242962 0 1 C0 0.67 0 0.34 0 0 Z " fill="#40BE67" transform="translate(142,118)"/>
<path d="M0 0 C0.99 0.33 1.98 0.66 3 1 C3 1.99 3 2.98 3 4 C3.99 4 4.98 4 6 4 C5.67 7.63 5.34 11.26 5 15 C3.68 15.33 2.36 15.66 1 16 C1.02320313 15.30132812 1.04640625 14.60265625 1.0703125 13.8828125 C1.08835937 12.97273438 1.10640625 12.06265625 1.125 11.125 C1.15980469 9.76761719 1.15980469 9.76761719 1.1953125 8.3828125 C1.24324836 5.81193006 1.24324836 5.81193006 -1 4 C-0.625 1.875 -0.625 1.875 0 0 Z " fill="#11C55E" transform="translate(312,319)"/>
<path d="M0 0 C2 0 2 0 4.125 2 C4.74375 2.66 5.3625 3.32 6 4 C6.33 2.68 6.66 1.36 7 0 C7.99 0 8.98 0 10 0 C10 1.65 10 3.3 10 5 C9.01 5.495 9.01 5.495 8 6 C8 6.99 8 7.98 8 9 C9.98 9 11.96 9 14 9 C13.34 10.65 12.68 12.3 12 14 C7.0764464 10.12642613 3.40950648 6.26923729 0 1 C0 0.67 0 0.34 0 0 Z " fill="#3DBF65" transform="translate(124,99)"/>
<path d="M0 0 C-5.39988101 5.03988894 -11.16818251 9.08826352 -18 12 C-18.66 11.67 -19.32 11.34 -20 11 C-19.21625 10.608125 -18.4325 10.21625 -17.625 9.8125 C-14.64843582 7.75725331 -14.01176437 6.40320742 -13 3 C-11.68 3 -10.36 3 -9 3 C-9 2.34 -9 1.68 -9 1 C-2.25 -1.125 -2.25 -1.125 0 0 Z " fill="#4DBD6E" transform="translate(280,121)"/>
<path d="M0 0 C0.66 0.33 1.32 0.66 2 1 C2 2.65 2 4.3 2 6 C1.01 6 0.02 6 -1 6 C-0.67 7.65 -0.34 9.3 0 11 C0.66 11 1.32 11 2 11 C1.34 12.65 0.68 14.3 0 16 C-0.33 15.34 -0.66 14.68 -1 14 C-1.99 13.67 -2.98 13.34 -4 13 C-4.34837335 8.12277312 -3.45094389 5.21562348 -1 1 C-0.67 0.67 -0.34 0.34 0 0 Z " fill="#11C55D" transform="translate(122,363)"/>
<path d="M0 0 C0.99 0.33 1.98 0.66 3 1 C3 1.66 3 2.32 3 3 C4.32 2.67 5.64 2.34 7 2 C9.19097652 5.3340947 10.43454163 8.04179141 11 12 C9.68 12 8.36 12 7 12 C5.95355934 10.36209288 4.9601817 8.68991979 4 7 C1.42816686 4.72462308 1.42816686 4.72462308 -1 3 C-0.67 2.01 -0.34 1.02 0 0 Z " fill="#14C55D" transform="translate(176,69)"/>
<path d="M0 0 C3.11521395 -0.45588497 5.220462 -0.5229199 7.88671875 1.265625 C10.36933686 3.40994085 12.68125386 5.68125386 15 8 C12.75 8.75 12.75 8.75 10 9 C8.64426252 7.68945377 7.31387169 6.35251497 6 5 C2.36456099 3.72234735 2.36456099 3.72234735 -1 3 C-0.67 2.01 -0.34 1.02 0 0 Z " fill="#11C55D" transform="translate(145,46)"/>
<path d="M0 0 C0.66 0 1.32 0 2 0 C3.32 2.31 4.64 4.62 6 7 C7.65 7 9.3 7 11 7 C10.1875 8.9375 10.1875 8.9375 9 11 C8.01 11.33 7.02 11.66 6 12 C5.34 11.01 4.68 10.02 4 9 C1.44816596 7.79549696 1.44816596 7.79549696 -1 7 C-1.04254356 5.00045254 -1.04080783 2.99958364 -1 1 C-0.67 0.67 -0.34 0.34 0 0 Z " fill="#12C65D" transform="translate(145,357)"/>
<path d="M0 0 C1.98 0 3.96 0 6 0 C6.33 1.32 6.66 2.64 7 4 C6.34 4 5.68 4 5 4 C5.33 9.28 5.66 14.56 6 20 C4.21403811 17.32105716 3.60830822 15.9968331 2.9296875 12.98828125 C2.75566406 12.23095703 2.58164063 11.47363281 2.40234375 10.69335938 C2.14130859 9.51483398 2.14130859 9.51483398 1.875 8.3125 C1.60236328 7.11657227 1.60236328 7.11657227 1.32421875 5.89648438 C0.87726573 3.93224349 0.43789584 1.96627986 0 0 Z " fill="#41BD68" transform="translate(94,288)"/>
<path d="M0 0 C0.99 0 1.98 0 3 0 C2.98259766 0.95712891 2.98259766 0.95712891 2.96484375 1.93359375 C2.95582031 2.75988281 2.94679687 3.58617187 2.9375 4.4375 C2.92589844 5.26121094 2.91429687 6.08492187 2.90234375 6.93359375 C2.76732652 8.99163938 2.76732652 8.99163938 4 10 C4.04080783 11.99958364 4.04254356 14.00045254 4 16 C3.34 16 2.68 16 2 16 C1.67 14.02 1.34 12.04 1 10 C0.01 9.67 -0.98 9.34 -2 9 C-1.51421457 5.87709365 -1.0013988 3.00419641 0 0 Z " fill="#0AC661" transform="translate(202,176)"/>
<path d="M0 0 C0.99 0 1.98 0 3 0 C1.52307692 5.66153846 1.52307692 5.66153846 -1.125 7.375 C-2.053125 7.684375 -2.053125 7.684375 -3 8 C-3 9.65 -3 11.3 -3 13 C-4.32 12.67 -5.64 12.34 -7 12 C-7.33 10.68 -7.66 9.36 -8 8 C-7.01 7.67 -6.02 7.34 -5 7 C-3.78130071 4.49552484 -3.78130071 4.49552484 -3 2 C-2.01 2 -1.02 2 0 2 C0 1.34 0 0.68 0 0 Z " fill="#0EC65E" transform="translate(139,96)"/>
<path d="M0 0 C0 0.99 0 1.98 0 3 C-0.99 2.67 -1.98 2.34 -3 2 C-2.34 3.65 -1.68 5.3 -1 7 C-4.44069624 9.29379749 -5.72290301 10 -10 10 C-9.0022242 7.00667261 -8.2477975 6.05233685 -6 4 C-6.66 3.67 -7.32 3.34 -8 3 C-5.53387212 -0.1151089 -3.89156016 -0.31553191 0 0 Z " fill="#11C55D" transform="translate(270,52)"/>
<path d="M0 0 C0.66 0 1.32 0 2 0 C1.67 1.65 1.34 3.3 1 5 C-1.64 5 -4.28 5 -7 5 C-7 5.66 -7 6.32 -7 7 C-8.32 7.33 -9.64 7.66 -11 8 C-11.33 7.34 -11.66 6.68 -12 6 C-12.99 5.34 -13.98 4.68 -15 4 C-13.35 4 -11.7 4 -10 4 C-10 3.34 -10 2.68 -10 2 C-6.7 2 -3.4 2 0 2 C0 1.34 0 0.68 0 0 Z " fill="#13C55D" transform="translate(297,39)"/>
<path d="M0 0 C2.74554724 2.37115444 3.95117186 4.53079925 5 8 C5.039992 9.99960012 5.04346799 12.00047242 5 14 C5.33 14.99 5.66 15.98 6 17 C5.01 16.67 4.02 16.34 3 16 C3 15.01 3 14.02 3 13 C2.34 13 1.68 13 1 13 C0.67 13.99 0.34 14.98 0 16 C-0.33 16 -0.66 16 -1 16 C-1 14.02 -1 12.04 -1 10 C-0.34 9.67 0.32 9.34 1 9 C1.65555119 6.47266765 1.65555119 6.47266765 2 4 C1.34 4 0.68 4 0 4 C0 2.68 0 1.36 0 0 Z " fill="#35C268" transform="translate(201,96)"/>
<path d="M0 0 C1.32 0 2.64 0 4 0 C4 0.66 4 1.32 4 2 C4.66 2 5.32 2 6 2 C6 2.66 6 3.32 6 4 C9.27773504 3.24849977 9.27773504 3.24849977 11 0 C11.33 1.32 11.66 2.64 12 4 C6.375 9 6.375 9 3 9 C3.0928125 7.824375 3.0928125 7.824375 3.1875 6.625 C3.125625 5.75875 3.06375 4.8925 3 4 C2.01 3.34 1.02 2.68 0 2 C0 1.34 0 0.68 0 0 Z " fill="#09C65B" transform="translate(352,272)"/>
<path d="M0 0 C0.99 0.33 1.98 0.66 3 1 C2.125 4.875 2.125 4.875 1 6 C0.76712992 7.68183948 0.58735834 9.3712416 0.4375 11.0625 C0.31181641 12.44115234 0.31181641 12.44115234 0.18359375 13.84765625 C0.12300781 14.55792969 0.06242187 15.26820313 0 16 C-0.99 15.67 -1.98 15.34 -3 15 C-3.33 11.7 -3.66 8.4 -4 5 C-3.01 4.67 -2.02 4.34 -1 4 C-0.26676204 1.98491642 -0.26676204 1.98491642 0 0 Z " fill="#0FC65D" transform="translate(118,351)"/>
<path d="M0 0 C0.33 0 0.66 0 1 0 C1.09765625 6.15234375 1.09765625 6.15234375 1 8 C0.67 8.33 0.34 8.66 0 9 C-0.54107902 11.96456743 -0.96539063 14.94031251 -1.40234375 17.921875 C-1.96743643 20.83228697 -2.80342679 23.29644548 -4 26 C-4.66 26 -5.32 26 -6 26 C-5.3781885 22.97847907 -4.75265425 19.95780786 -4.125 16.9375 C-3.95097656 16.08994141 -3.77695312 15.24238281 -3.59765625 14.36914062 C-2.58438314 9.50918257 -1.43195336 4.75382714 0 0 Z " fill="#48BA6E" transform="translate(280,333)"/>
<path d="M0 0 C0.99 0.33 1.98 0.66 3 1 C1 9 -1 17 -3 25 C-3.33 25 -3.66 25 -4 25 C-4.09765625 18.84765625 -4.09765625 18.84765625 -4 17 C-3.67 16.67 -3.34 16.34 -3 16 C-2.75266863 11.85723125 -2.75266863 11.85723125 -4 8 C-3.67 7.01 -3.34 6.02 -3 5 C-2.01 5 -1.02 5 0 5 C0 3.35 0 1.7 0 0 Z " fill="#4ABD6B" transform="translate(327,288)"/>
<path d="M0 0 C0.99 0.33 1.98 0.66 3 1 C2.67 2.32 2.34 3.64 2 5 C1.34 5 0.68 5 0 5 C0 9.29 0 13.58 0 18 C-2.26562673 15.73437327 -2.94462749 14.15839295 -3.09765625 10.95703125 C-3.06510417 8.97135417 -3.03255208 6.98567708 -3 5 C-2.34 5 -1.68 5 -1 5 C-0.67 3.35 -0.34 1.7 0 0 Z " fill="#11C65B" transform="translate(102,287)"/>
<path d="M0 0 C1.32 0 2.64 0 4 0 C7.125 9.375 7.125 9.375 4 16 C3.67 16 3.34 16 3 16 C3 12.37 3 8.74 3 5 C2.01 5 1.02 5 0 5 C0 3.35 0 1.7 0 0 Z " fill="#0DC65E" transform="translate(345,240)"/>
<path d="M0 0 C5.95185968 4.61572792 9.90441138 9.7010096 14 16 C13.67 16.66 13.34 17.32 13 18 C11 16.1875 11 16.1875 9 14 C9 13.01 9 12.02 9 11 C8.01 11 7.02 11 6 11 C2.55813601 7.47618687 0.44556134 5.04969516 0 0 Z " fill="#48BA6E" transform="translate(182,69)"/>
<path d="M0 0 C0.66 0 1.32 0 2 0 C2.85298376 3.67387495 3.10789471 7.0447393 3.0625 10.8125 C3.05347656 11.78832031 3.04445313 12.76414062 3.03515625 13.76953125 C3.02355469 14.50558594 3.01195313 15.24164063 3 16 C1.02 16.99 1.02 16.99 -1 18 C-0.85904936 16.3745692 -0.71207913 14.74965949 -0.5625 13.125 C-0.48128906 12.22007812 -0.40007812 11.31515625 -0.31640625 10.3828125 C0 8 0 8 1 6 C0.34 5.67 -0.32 5.34 -1 5 C-0.67 3.35 -0.34 1.7 0 0 Z " fill="#10C55E" transform="translate(110,324)"/>
<path d="M0 0 C0.33 0 0.66 0 1 0 C1 4.95 1 9.9 1 15 C-2.16880694 11.83119306 -3.23106752 10.35728408 -4 6 C-2.1875 2.625 -2.1875 2.625 0 0 Z " fill="#0EC65F" transform="translate(109,305)"/>
<path d="M0 0 C12.66970387 0.96355353 12.66970387 0.96355353 18 2 C14.42271497 4.14637102 11.15296221 4.78883243 7 5 C4.4707243 4.23235991 2.3707804 3.20958184 0 2 C0 1.34 0 0.68 0 0 Z " fill="#01C75B" transform="translate(335,280)"/>
<path d="M0 0 C0.66 0.66 1.32 1.32 2 2 C2.33 1.67 2.66 1.34 3 1 C4.66617115 0.95936168 6.33388095 0.957279 8 1 C2.89336335 6.10663665 -5.03962408 7.4844166 -12 8 C-11.34 7.01 -10.68 6.02 -10 5 C-6.875 4.8125 -6.875 4.8125 -4 5 C-3.67 4.01 -3.34 3.02 -3 2 C-2.01 1.34 -1.02 0.68 0 0 Z " fill="#48C26D" transform="translate(252,132)"/>
<path d="M0 0 C0.33 0.66 0.66 1.32 1 2 C0.360625 2.556875 -0.27875 3.11375 -0.9375 3.6875 C-3.19680987 6.22066561 -3.63149047 7.68341424 -4 11 C-4.66 11 -5.32 11 -6 11 C-6 11.66 -6 12.32 -6 13 C-7.33333333 14.33333333 -8.66666667 15.66666667 -10 17 C-11.36821051 18.97630407 -12.70951192 20.97209016 -14 23 C-14.33 22.34 -14.66 21.68 -15 21 C-11.10024169 13.59918072 -5.93992768 5.93992768 0 0 Z " fill="#4EBD75" transform="translate(237,74)"/>
<path d="M0 0 C0.33 0.66 0.66 1.32 1 2 C3.02463255 2.65213292 3.02463255 2.65213292 5 3 C5 3.99 5 4.98 5 6 C4.195625 5.855625 3.39125 5.71125 2.5625 5.5625 C-1.61359481 4.90311661 -5.79598059 4.43908647 -10 4 C-10 3.34 -10 2.68 -10 2 C-6.38026598 0.68373308 -3.90432869 0 0 0 Z " fill="#10C65F" transform="translate(346,272)"/>
<path d="M0 0 C0.66 0.33 1.32 0.66 2 1 C0.46527032 5.72224516 -1.23945126 10.35855331 -3 15 C-3.66 15 -4.32 15 -5 15 C-5.36666667 7.66666667 -5.36666667 7.66666667 -3.625 4.5 C-2 3 -2 3 0 3 C0 2.01 0 1.02 0 0 Z " fill="#07C65E" transform="translate(137,317)"/>
<path d="M0 0 C0.66 0 1.32 0 2 0 C0.48183433 3.5750353 -1.63152221 5.8997513 -4.375 8.625 C-5.53128906 9.78902344 -5.53128906 9.78902344 -6.7109375 10.9765625 C-8.7670065 12.79404329 -10.49265929 13.93523887 -13 15 C-11.66666667 12.33333333 -10.33333333 9.66666667 -9 7 C-7.68 7 -6.36 7 -5 7 C-5 6.01 -5 5.02 -5 4 C-4.01 4 -3.02 4 -2 4 C-2 3.34 -2 2.68 -2 2 C-1.34 2 -0.68 2 0 2 C0 1.34 0 0.68 0 0 Z " fill="#4CBB6E" transform="translate(293,105)"/>
<path d="M0 0 C0 0.66 0 1.32 0 2 C6.93 2.495 6.93 2.495 14 3 C14 3.33 14 3.66 14 4 C11.3118751 4.08164159 8.626277 4.14079668 5.9375 4.1875 C4.80924805 4.22520508 4.80924805 4.22520508 3.65820312 4.26367188 C-1.66631856 4.33282151 -5.24346434 3.40669334 -10 1 C-10 0.67 -10 0.34 -10 0 C-6.33694766 -0.74926071 -3.57644848 -1.2380014 0 0 Z " fill="#4CBB6B" transform="translate(80,284)"/>
<path d="M0 0 C7.39139585 0.40751042 13.99822721 1.58507186 21 4 C17.52176885 5.15941038 15.54104422 4.70820884 12 4 C12 4.66 12 5.32 12 6 C9.5625 5.625 9.5625 5.625 7 5 C6.67 4.34 6.34 3.68 6 3 C4.02111039 2.27306096 2.02045442 1.60183749 0 1 C0 0.67 0 0.34 0 0 Z " fill="#47C06D" transform="translate(119,37)"/>
<path d="M0 0 C1.48828125 1.14453125 1.48828125 1.14453125 3 3 C3.29296875 5.69921875 3.29296875 5.69921875 3.1875 8.6875 C3.16042969 9.68136719 3.13335937 10.67523438 3.10546875 11.69921875 C3.07066406 12.45847656 3.03585937 13.21773438 3 14 C3.66 14 4.32 14 5 14 C5 15.65 5 17.3 5 19 C4.34 19 3.68 19 3 19 C3 18.01 3 17.02 3 16 C2.34 16 1.68 16 1 16 C1.01160156 15.28972656 1.02320313 14.57945312 1.03515625 13.84765625 C1.04417969 12.92855469 1.05320312 12.00945312 1.0625 11.0625 C1.07990234 9.68771484 1.07990234 9.68771484 1.09765625 8.28515625 C1.25949049 6.03406673 1.25949049 6.03406673 0 5 C-0.04063832 3.33382885 -0.042721 1.66611905 0 0 Z " fill="#11C65C" transform="translate(283,328)"/>
<path d="M0 0 C0.33 0 0.66 0 1 0 C1.51778074 7.69479711 0.7505733 13.21882953 -3 20 C-3.5625 18.0625 -3.5625 18.0625 -4 16 C-3.67 15.67 -3.34 15.34 -3 15 C-2.92820036 13.48071962 -2.91607993 11.95832518 -2.9375 10.4375 C-2.94652344 9.61121094 -2.95554687 8.78492188 -2.96484375 7.93359375 C-2.97644531 7.29550781 -2.98804688 6.65742188 -3 6 C-2.34 6 -1.68 6 -1 6 C-0.67 4.02 -0.34 2.04 0 0 Z " fill="#46BB6B" transform="translate(373,250)"/>
<path d="M0 0 C0 0.66 0 1.32 0 2 C-6.75 6 -6.75 6 -9 6 C-9 6.66 -9 7.32 -9 8 C-9.66 8 -10.32 8 -11 8 C-11 8.66 -11 9.32 -11 10 C-13.64 10.66 -16.28 11.32 -19 12 C-14.80892044 7.06051338 -6.66287101 0 0 0 Z " fill="#51BD71" transform="translate(272,47)"/>
<path d="M0 0 C0 0.66 0 1.32 0 2 C-0.84304688 2.04898438 -1.68609375 2.09796875 -2.5546875 2.1484375 C-3.65039062 2.22320312 -4.74609375 2.29796875 -5.875 2.375 C-7.51082031 2.47941406 -7.51082031 2.47941406 -9.1796875 2.5859375 C-12.13046474 2.73253491 -12.13046474 2.73253491 -14 5 C-16.625 5.125 -16.625 5.125 -19 5 C-19.33 4.34 -19.66 3.68 -20 3 C-13.19877155 -0.13902852 -7.43378943 -0.33452052 0 0 Z " fill="#10C65B" transform="translate(312,44)"/>
<path d="M0 0 C0.66 0 1.32 0 2 0 C2 2.31 2 4.62 2 7 C2.66 7 3.32 7 4 7 C4 9.64 4 12.28 4 15 C3.34 15 2.68 15 2 15 C-0.02558881 11.65060119 -0.21738987 9.13037449 -0.125 5.25 C-0.09792969 3.77273438 -0.09792969 3.77273438 -0.0703125 2.265625 C-0.04710937 1.51796875 -0.02390625 0.7703125 0 0 Z " fill="#07C65F" transform="translate(306,336)"/>
<path d="M0 0 C0.33 0 0.66 0 1 0 C1.9765625 6.0546875 1.9765625 6.0546875 2 8 C1.34 8.66 0.68 9.32 0 10 C-0.6160465 12.35680175 -1.14726384 14.73631921 -1.625 17.125 C-1.88539063 18.40632813 -2.14578125 19.68765625 -2.4140625 21.0078125 C-2.70410156 22.48894531 -2.70410156 22.48894531 -3 24 C-3.66 23.67 -4.32 23.34 -5 23 C-3.69951304 15.22767795 -1.99548103 7.62273755 0 0 Z " fill="#48BB6A" transform="translate(286,309)"/>
<path d="M0 0 C0.66 1.32 1.32 2.64 2 4 C1.01 4 0.02 4 -1 4 C-1 3.34 -1 2.68 -1 2 C-2.65 2 -4.3 2 -6 2 C-6 2.66 -6 3.32 -6 4 C-9 6 -9 6 -11.6875 5.625 C-12.450625 5.41875 -13.21375 5.2125 -14 5 C-13.01 4.67 -12.02 4.34 -11 4 C-11 3.34 -11 2.68 -11 2 C-7.17010894 0.19769832 -4.21878192 -0.19622241 0 0 Z " fill="#0EC65D" transform="translate(78,274)"/>
<path d="M0 0 C2.64 0 5.28 0 8 0 C7.67 0.66 7.34 1.32 7 2 C5.68 2 4.36 2 3 2 C3 2.66 3 3.32 3 4 C2.01 4.495 2.01 4.495 1 5 C1.639375 5.268125 2.27875 5.53625 2.9375 5.8125 C5 7 5 7 6 10 C2.59679258 8.98823563 1.24274669 8.35156418 -0.8125 5.375 C-1.4003125 4.199375 -1.4003125 4.199375 -2 3 C-1.34 3 -0.68 3 0 3 C0 2.01 0 1.02 0 0 Z " fill="#38C165" transform="translate(64,274)"/>
<path d="M0 0 C6.17398461 3.15267299 10.94783982 7.28006804 16 12 C12.46249971 12 12.19174106 11.53225602 9.75 9.1875 C6.36062443 6.13055786 3.26801969 4.56784397 -1 3 C-0.67 2.01 -0.34 1.02 0 0 Z " fill="#4BBD6E" transform="translate(162,52)"/>
<path d="M0 0 C2.31 0 4.62 0 7 0 C6.67 1.65 6.34 3.3 6 5 C5.34 4.34 4.68 3.68 4 3 C4 5.64 4 8.28 4 11 C3.01 11.495 3.01 11.495 2 12 C1.66269158 10.56342755 1.33030409 9.12569907 1 7.6875 C0.814375 6.88699219 0.62875 6.08648437 0.4375 5.26171875 C0 3 0 3 0 0 Z " fill="#39C066" transform="translate(105,54)"/>
<path d="M0 0 C1.65 0 3.3 0 5 0 C4.67 1.65 4.34 3.3 4 5 C3.34 5 2.68 5 2 5 C2 5.66 2 6.32 2 7 C1.01 7.33 0.02 7.66 -1 8 C-1.93065133 5.39417629 -2.14917407 4.35801776 -1.0625 1.75 C-0.711875 1.1725 -0.36125 0.595 0 0 Z " fill="#0DC65A" transform="translate(298,375)"/>
<path d="M0 0 C-1.22062521 1.44475986 -2.45192126 2.88050764 -3.6875 4.3125 C-4.37199219 5.11300781 -5.05648438 5.91351563 -5.76171875 6.73828125 C-8.04026068 9.04068226 -10.08967337 10.58586119 -13 12 C-13.66 11.67 -14.32 11.34 -15 11 C-14.3503125 10.54109375 -13.700625 10.0821875 -13.03125 9.609375 C-12.1959375 8.99578125 -11.360625 8.3821875 -10.5 7.75 C-9.6646875 7.14671875 -8.829375 6.5434375 -7.96875 5.921875 C-7.3190625 5.28765625 -6.669375 4.6534375 -6 4 C-6 2.68 -6 1.36 -6 0 C-3.50907189 -1.24546405 -2.58919267 -0.7767578 0 0 Z " fill="#4CC075" transform="translate(369,272)"/>
<path d="M0 0 C0.66 0 1.32 0 2 0 C2.66 0.99 3.32 1.98 4 3 C4.99 3.33 5.98 3.66 7 4 C7 5.98 7 7.96 7 10 C6.01 10.33 5.02 10.66 4 11 C3.32880451 9.5437455 2.66318193 8.08492133 2 6.625 C1.62875 5.81289062 1.2575 5.00078125 0.875 4.1640625 C0 2 0 2 0 0 Z " fill="#09C65B" transform="translate(227,180)"/>
<path d="M0 0 C2.75 0.3125 2.75 0.3125 5 1 C1.66029787 4.33970213 -1.58499962 5.11560468 -6.20703125 5.1953125 C-7.74230984 5.18213414 -9.27752934 5.15845284 -10.8125 5.125 C-11.99489258 5.11146484 -11.99489258 5.11146484 -13.20117188 5.09765625 C-15.13424666 5.07422504 -17.0671638 5.03835838 -19 5 C-19 4.67 -19 4.34 -19 4 C-17.44539063 3.94392578 -17.44539063 3.94392578 -15.859375 3.88671875 C-14.48954816 3.82104212 -13.11975809 3.75459536 -11.75 3.6875 C-10.72712891 3.65366211 -10.72712891 3.65366211 -9.68359375 3.61914062 C-5.44771435 3.39295289 -3.20645297 2.7314229 0 0 Z " fill="#4DBE72" transform="translate(349,283)"/>
<path d="M0 0 C0.66 0 1.32 0 2 0 C2.33 1.98 2.66 3.96 3 6 C2.01 6.495 2.01 6.495 1 7 C0.34786708 9.02463255 0.34786708 9.02463255 0 11 C-0.99 10.67 -1.98 10.34 -3 10 C-3.125 7.625 -3.125 7.625 -3 5 C-2.34 4.34 -1.68 3.68 -1 3 C-0.67 2.01 -0.34 1.02 0 0 Z " fill="#07C758" transform="translate(56,256)"/>
<path d="M0 0 C4.95 0 9.9 0 15 0 C15 0.99 15 1.98 15 3 C15.66 3.33 16.32 3.66 17 4 C11.08507728 3.54775239 5.64800112 2.8417395 0 1 C0 0.67 0 0.34 0 0 Z " fill="#48C06C" transform="translate(177,138)"/>
<path d="M0 0 C-0.66 1.32 -1.32 2.64 -2 4 C-3.65 4 -5.3 4 -7 4 C-7.33 3.34 -7.66 2.68 -8 2 C-10.32156597 1.59270772 -12.6568787 1.25561323 -15 1 C-15 0.67 -15 0.34 -15 0 C-9.76528314 -0.75612577 -5.22745859 -1.2063366 0 0 Z " fill="#10C65E" transform="translate(182,128)"/>
<path d="M0 0 C0 2 0 2 -1.0625 3.5 C-5.09414048 6.62127005 -10.01087847 7.302371 -15 7 C-10.91129463 3.29461076 -5.70674915 0 0 0 Z " fill="#0EC659" transform="translate(251,132)"/>
<path d="M0 0 C1.4540625 0.0309375 1.4540625 0.0309375 2.9375 0.0625 C3.2675 0.7225 3.5975 1.3825 3.9375 2.0625 C2.9475 2.0625 1.9575 2.0625 0.9375 2.0625 C0.9375 2.7225 0.9375 3.3825 0.9375 4.0625 C-0.3825 4.0625 -1.7025 4.0625 -3.0625 4.0625 C-3.7225 6.0425 -4.3825 8.0225 -5.0625 10.0625 C-5.7225 9.7325 -6.3825 9.4025 -7.0625 9.0625 C-6.753125 8.299375 -6.44375 7.53625 -6.125 6.75 C-5.38356407 4.87460323 -4.70021783 2.97565348 -4.0625 1.0625 C-3.0625 0.0625 -3.0625 0.0625 0 0 Z " fill="#26C561" transform="translate(270.0625,119.9375)"/>
<path d="M0 0 C0.66 0.33 1.32 0.66 2 1 C2 1.66 2 2.32 2 3 C1.34 3 0.68 3 0 3 C0 5.64 0 8.28 0 11 C-2.59487555 9.70256222 -3.02269781 8.70637529 -4 6 C-3.625 3.25 -3.625 3.25 -3 1 C-2.01 0.67 -1.02 0.34 0 0 Z " fill="#10C55D" transform="translate(120,79)"/>
<path d="M0 0 C-9.22551253 5.74031891 -9.22551253 5.74031891 -15 5 C-15 4.67 -15 4.34 -15 4 C-13.35 4 -11.7 4 -10 4 C-10 3.34 -10 2.68 -10 2 C-10.66 1.67 -11.32 1.34 -12 1 C-10.56496445 0.63597631 -9.12683494 0.28413409 -7.6875 -0.0625 C-6.88699219 -0.25972656 -6.08648437 -0.45695312 -5.26171875 -0.66015625 C-3 -1 -3 -1 0 0 Z " fill="#3DBF6D" transform="translate(297,389)"/>
<path d="M0 0 C0.99 0.495 0.99 0.495 2 1 C2.144375 1.639375 2.28875 2.27875 2.4375 2.9375 C2.86165035 5.38210855 2.86165035 5.38210855 6 7 C5.67 9.64 5.34 12.28 5 15 C2.56158876 12.56158876 2.23847249 10.81433885 1.375 7.5 C1.11460938 6.5203125 0.85421875 5.540625 0.5859375 4.53125 C0 2 0 2 0 0 Z " fill="#43C06E" transform="translate(113,361)"/>
<path d="M0 0 C0.99 0.66 1.98 1.32 3 2 C2.37240135 4.92879371 1.41377341 7.36095629 0 10 C-1.32 10 -2.64 10 -4 10 C-3.67 8.68 -3.34 7.36 -3 6 C-2.34 6 -1.68 6 -1 6 C-0.67 4.02 -0.34 2.04 0 0 Z " fill="#2AC35D" transform="translate(282,342)"/>
<path d="M0 0 C1.32 0 2.64 0 4 0 C3.67 4.29 3.34 8.58 3 13 C2.67 13 2.34 13 2 13 C-0.28571429 4.57142857 -0.28571429 4.57142857 0 0 Z " fill="#41C063" transform="translate(106,332)"/>
<path d="M0 0 C0.66 0 1.32 0 2 0 C4.74375671 2.95481492 5 3.77471908 5 8 C3.02 7.34 1.04 6.68 -1 6 C-1.042721 4.33388095 -1.04063832 2.66617115 -1 1 C-0.67 0.67 -0.34 0.34 0 0 Z " fill="#11C55C" transform="translate(320,294)"/>
<path d="M0 0 C0.66 0.99 1.32 1.98 2 3 C2.99 3.33 3.98 3.66 5 4 C5 5.98 5 7.96 5 10 C4.01 10.495 4.01 10.495 3 11 C1 10 1 10 0.33203125 8.22265625 C0.07486328 7.15337891 0.07486328 7.15337891 -0.1875 6.0625 C-0.36667969 5.35222656 -0.54585938 4.64195312 -0.73046875 3.91015625 C-1 2 -1 2 0 0 Z " fill="#0AC65D" transform="translate(295,288)"/>
<path d="M0 0 C1.65 0 3.3 0 5 0 C4.67 1.65 4.34 3.3 4 5 C0.37 4.67 -3.26 4.34 -7 4 C-6.67 3.34 -6.34 2.68 -6 2 C-4.02 2 -2.04 2 0 2 C0 1.34 0 0.68 0 0 Z " fill="#10C65D" transform="translate(223,140)"/>
<path d="M0 0 C0.66 1.32 1.32 2.64 2 4 C2.66 4 3.32 4 4 4 C3.67 5.65 3.34 7.3 3 9 C1.35 8.67 -0.3 8.34 -2 8 C-2 6.68 -2 5.36 -2 4 C-1.34 4 -0.68 4 0 4 C0 2.68 0 1.36 0 0 Z " fill="#12C65D" transform="translate(302,80)"/>
<path d="M0 0 C1.37344385 4.39844322 0.24307502 7.92504555 -0.9375 12.25 C-1.23043945 13.36761719 -1.23043945 13.36761719 -1.52929688 14.5078125 C-2.01104198 16.34079386 -2.50439225 18.17071818 -3 20 C-3.33 20 -3.66 20 -4 20 C-4.33 17.36 -4.66 14.72 -5 12 C-4.01 11.67 -3.02 11.34 -2 11 C-2.061875 9.39125 -2.061875 9.39125 -2.125 7.75 C-2.0114175 4.34252515 -1.78726636 2.79260369 0 0 Z " fill="#4DB76C" transform="translate(319,325)"/>
<path d="M0 0 C2.475 0.99 2.475 0.99 5 2 C4.67 3.32 4.34 4.64 4 6 C3.01 6 2.02 6 1 6 C1 5.34 1 4.68 1 4 C0.01 4.33 -0.98 4.66 -2 5 C-2 4.01 -2 3.02 -2 2 C-1.34 2 -0.68 2 0 2 C0 1.34 0 0.68 0 0 Z " fill="#12C560" transform="translate(233,83)"/>
<path d="M0 0 C0 0.99 0 1.98 0 3 C-1.65385233 4.34919532 -3.321702 5.68133728 -5 7 C-6.31165257 9.11660427 -6.31165257 9.11660427 -7 11 C-7.99 11 -8.98 11 -10 11 C-9.64701919 8.0991395 -9.11271704 7.10483324 -6.93359375 5.078125 C-6.10988281 4.47484375 -5.28617188 3.8715625 -4.4375 3.25 C-3.61121094 2.63640625 -2.78492188 2.0228125 -1.93359375 1.390625 C-1.29550781 0.93171875 -0.65742188 0.4728125 0 0 Z " fill="#4DBA72" transform="translate(252,59)"/>
<path d="M0 0 C0.66 0 1.32 0 2 0 C1.67 2.64 1.34 5.28 1 8 C-0.32 8 -1.64 8 -3 8 C-1.125 2.25 -1.125 2.25 0 0 Z " fill="#0FC65C" transform="translate(276,359)"/>
<path d="M0 0 C0.99 0 1.98 0 3 0 C2.66666667 1.33333333 2.33333333 2.66666667 2 4 C1.87625 4.721875 1.7525 5.44375 1.625 6.1875 C1.41875 6.785625 1.2125 7.38375 1 8 C0.01 8.33 -0.98 8.66 -2 9 C-2.25 3.375 -2.25 3.375 0 0 Z " fill="#28C460" transform="translate(312,342)"/>
<path d="M0 0 C1.84790538 3.31016094 2.74541487 6.57173491 3.625 10.25 C4.01558594 11.86648438 4.01558594 11.86648438 4.4140625 13.515625 C4.60742188 14.33546875 4.80078125 15.1553125 5 16 C4.34 16 3.68 16 3 16 C0.52094098 13.52094098 0.02406854 12.69509948 -0.09765625 9.1796875 C-0.08605469 8.08914063 -0.07445312 6.99859375 -0.0625 5.875 C-0.05347656 4.77929688 -0.04445312 3.68359375 -0.03515625 2.5546875 C-0.02355469 1.71164062 -0.01195312 0.86859375 0 0 Z " fill="#44BD71" transform="translate(136,304)"/>
<path d="M0 0 C0.66 0 1.32 0 2 0 C2.33 2.64 2.66 5.28 3 8 C2.01 8.33 1.02 8.66 0 9 C-0.66 8.34 -1.32 7.68 -2 7 C-1.34 4.69 -0.68 2.38 0 0 Z " fill="#0CC55B" transform="translate(292,295)"/>
<path d="M0 0 C1.258125 -0.020625 2.51625 -0.04125 3.8125 -0.0625 C4.52019531 -0.07410156 5.22789062 -0.08570313 5.95703125 -0.09765625 C8 0 8 0 11 1 C10.34 2.32 9.68 3.64 9 5 C7 4 7 4 6 3 C4.00577205 2.63371323 2.00546689 2.29868656 0 2 C0 1.34 0 0.68 0 0 Z " fill="#30C35F" transform="translate(245,130)"/>
<path d="M0 0 C0.66 0.33 1.32 0.66 2 1 C1.8125 3.3125 1.8125 3.3125 1 6 C-1.5625 7.8125 -1.5625 7.8125 -4 9 C-2.94124926 5.59687262 -1.99097846 2.98646769 0 0 Z " fill="#0EC55B" transform="translate(127,374)"/>
<path d="M0 0 C0.66 0.33 1.32 0.66 2 1 C1.67 3.97 1.34 6.94 1 10 C0.34 10 -0.32 10 -1 10 C-1.02689216 8.52093108 -1.04634621 7.04172517 -1.0625 5.5625 C-1.07410156 4.73878906 -1.08570312 3.91507812 -1.09765625 3.06640625 C-1 1 -1 1 0 0 Z " fill="#30C360" transform="translate(119,358)"/>
<path d="M0 0 C0.99 0.33 1.98 0.66 3 1 C3 2.98 3 4.96 3 7 C2.01 7.33 1.02 7.66 0 8 C-0.38063221 5.6739143 -0.71269945 3.33944736 -1 1 C-0.67 0.67 -0.34 0.34 0 0 Z " fill="#14C561" transform="translate(110,292)"/>
<path d="M0 0 C5.40489519 1.52012677 8.98492628 5.27385218 13 9 C9.02348017 9 7.85083826 7.55718178 4.8125 5.0625 C3.91144531 4.33160156 3.01039063 3.60070312 2.08203125 2.84765625 C1.39496094 2.23792969 0.70789063 1.62820312 0 1 C0 0.67 0 0.34 0 0 Z " fill="#56BC72" transform="translate(142,118)"/>
<path d="M0 0 C1.65 0 3.3 0 5 0 C5 0.99 5 1.98 5 3 C1.7 3.33 -1.6 3.66 -5 4 C-3.68 3.67 -2.36 3.34 -1 3 C-0.67 2.01 -0.34 1.02 0 0 Z " fill="#09C65B" transform="translate(181,133)"/>
<path d="M0 0 C2.3125 0.1875 2.3125 0.1875 4 1 C3.67 1.66 3.34 2.32 3 3 C2.01 3.33 1.02 3.66 0 4 C-0.33 4.66 -0.66 5.32 -1 6 C-2.32 5.67 -3.64 5.34 -5 5 C-2.75 2.4375 -2.75 2.4375 0 0 Z " fill="#12C65D" transform="translate(157,111)"/>
<path d="M0 0 C2 1 2 1 2.8125 3.375 C3 6 3 6 1.5625 7.8125 C1.046875 8.204375 0.53125 8.59625 0 9 C-1.36623674 6.26752652 -1.128426 4.01801098 -1 1 C-0.67 0.67 -0.34 0.34 0 0 Z " fill="#13C561" transform="translate(304,70)"/>
<path d="M0 0 C3.3 0 6.6 0 10 0 C10 0.99 10 1.98 10 3 C5.06071112 3.3367697 4.21507278 3.16130459 0 0 Z " fill="#3BC16D" transform="translate(134,392)"/>
<path d="M0 0 C1.5625 1.1875 1.5625 1.1875 3 3 C2.6875 5.6875 2.6875 5.6875 2 8 C-2.875 5.25 -2.875 5.25 -4 3 C-3.01 3.33 -2.02 3.66 -1 4 C-0.67 2.68 -0.34 1.36 0 0 Z " fill="#47C16B" transform="translate(127,381)"/>
<path d="M0 0 C-1.35021826 4.41889613 -3.26115668 6.34345343 -7 9 C-4.4 0 -4.4 0 0 0 Z " fill="#53BC73" transform="translate(304,379)"/>
<path d="M0 0 C0.66 0 1.32 0 2 0 C2 0.66 2 1.32 2 2 C2.66 2 3.32 2 4 2 C4 2.99 4 3.98 4 5 C4.99 5.33 5.98 5.66 7 6 C4 7 4 7 1 6 C0.67 4.02 0.34 2.04 0 0 Z " fill="#31C164" transform="translate(290,98)"/>
<path d="M0 0 C0.99 0.33 1.98 0.66 3 1 C3 1.99 3 2.98 3 4 C0.5 6.1875 0.5 6.1875 -2 8 C-2 4.23312136 -1.76462683 3.08809695 0 0 Z " fill="#12C55E" transform="translate(238,89)"/>
<path d="M0 0 C0.66 0.33 1.32 0.66 2 1 C2 2.65 2 4.3 2 6 C0.35 6 -1.3 6 -3 6 C-2.625 3.5625 -2.625 3.5625 -2 1 C-1.34 0.67 -0.68 0.34 0 0 Z " fill="#0BC659" transform="translate(247,67)"/>
<path d="M0 0 C6.93 0.495 6.93 0.495 14 1 C14 1.33 14 1.66 14 2 C9.38 2.33 4.76 2.66 0 3 C0 2.01 0 1.02 0 0 Z " fill="#14C55E" transform="translate(305,39)"/>
<path d="M0 0 C2 3 2 3 2 6 C2.66 6 3.32 6 4 6 C3.67 6.99 3.34 7.98 3 9 C2.34 9 1.68 9 1 9 C1 8.01 1 7.02 1 6 C0.34 6 -0.32 6 -1 6 C-1.042721 4.33388095 -1.04063832 2.66617115 -1 1 C-0.67 0.67 -0.34 0.34 0 0 Z " fill="#31C25F" transform="translate(287,362)"/>
<path d="M0 0 C0 0.99 0 1.98 0 3 C-3.96 2.67 -7.92 2.34 -12 2 C-12 1.67 -12 1.34 -12 1 C-7.93631321 0.22596442 -4.13574827 -0.0984702 0 0 Z " fill="#26C55E" transform="translate(188,136)"/>
<path d="M0 0 C0.66 0.33 1.32 0.66 2 1 C2 2.98 2 4.96 2 7 C0.68 6.67 -0.64 6.34 -2 6 C-2 4.35 -2 2.7 -2 1 C-1.34 0.67 -0.68 0.34 0 0 Z " fill="#30C264" transform="translate(196,94)"/>
<path d="M0 0 C1.9375 0.6875 1.9375 0.6875 4 2 C4.75 4.625 4.75 4.625 5 7 C4.01 7 3.02 7 2 7 C1.34 4.69 0.68 2.38 0 0 Z " fill="#0CC55C" transform="translate(192,85)"/>
<path d="M0 0 C-0.33 0.99 -0.66 1.98 -1 3 C-5.29 3 -9.58 3 -14 3 C-9.56270856 0.04180571 -5.24640913 -0.15430615 0 0 Z " fill="#57BA73" transform="translate(304,37)"/>
<path d="M0 0 C0.66 0 1.32 0 2 0 C2 2.64 2 5.28 2 8 C1.01 8 0.02 8 -1 8 C-0.67 5.36 -0.34 2.72 0 0 Z " fill="#07C75B" transform="translate(106,296)"/>
<path d="M0 0 C3.96 0.33 7.92 0.66 12 1 C12 1.33 12 1.66 12 2 C10.02 2 8.04 2 6 2 C5.67 2.66 5.34 3.32 5 4 C2.525 3.01 2.525 3.01 0 2 C0 1.34 0 0.68 0 0 Z " fill="#11C65D" transform="translate(335,280)"/>
<path d="M0 0 C1.98 0 3.96 0 6 0 C6.33 0.99 6.66 1.98 7 3 C4.69 3 2.38 3 0 3 C0 2.01 0 1.02 0 0 Z " fill="#11C660" transform="translate(65,271)"/>
<path d="M0 0 C1.9375 0.8125 1.9375 0.8125 4 2 C4.33 2.99 4.66 3.98 5 5 C3.35 5 1.7 5 0 5 C-0.5625 3.0625 -0.5625 3.0625 -1 1 C-0.67 0.67 -0.34 0.34 0 0 Z " fill="#12C65C" transform="translate(87,207)"/>
<path d="M0 0 C1.32 0 2.64 0 4 0 C4 1.65 4 3.3 4 5 C2.68 4.67 1.36 4.34 0 4 C0 2.68 0 1.36 0 0 Z " fill="#2CC45D" transform="translate(56,181)"/>
<path d="M0 0 C1.98 0 3.96 0 6 0 C6.33 0.99 6.66 1.98 7 3 C4.69 3 2.38 3 0 3 C0 2.01 0 1.02 0 0 Z " fill="#10C661" transform="translate(246,127)"/>
<path d="M0 0 C4.455 0.99 4.455 0.99 9 2 C8.34 3.65 7.68 5.3 7 7 C5.83040013 6.02433888 4.66438823 5.044375 3.5 4.0625 C2.8503125 3.51722656 2.200625 2.97195312 1.53125 2.41015625 C1.0259375 1.94480469 0.520625 1.47945313 0 1 C0 0.67 0 0.34 0 0 Z " fill="#4AC06F" transform="translate(129,106)"/>
<path d="M0 0 C0.99 0.33 1.98 0.66 3 1 C3 2.32 3 3.64 3 5 C1.68 5.33 0.36 5.66 -1 6 C-1.625 4.125 -1.625 4.125 -2 2 C-1.34 1.34 -0.68 0.68 0 0 Z " fill="#14C65F" transform="translate(289,79)"/>
<path d="M0 0 C2.64 0 5.28 0 8 0 C7.34 1.65 6.68 3.3 6 5 C5.01 4.67 4.02 4.34 3 4 C3 3.34 3 2.68 3 2 C2.01 1.67 1.02 1.34 0 1 C0 0.67 0 0.34 0 0 Z " fill="#13C65D" transform="translate(250,63)"/>
<path d="M0 0 C2.35171131 0.59861742 4.6859378 1.26924352 7 2 C7.33 2.66 7.66 3.32 8 4 C5.69 4 3.38 4 1 4 C0.67 2.68 0.34 1.36 0 0 Z " fill="#0EC65E" transform="translate(162,56)"/>
<path d="M0 0 C3.59007126 1.33345504 6.79570907 2.8943231 10 5 C10 5.33 10 5.66 10 6 C8.35 6 6.7 6 5 6 C4.67 5.01 4.34 4.02 4 3 C1.99983534 1.79117904 1.99983534 1.79117904 0 1 C0 0.67 0 0.34 0 0 Z " fill="#50BC77" transform="translate(151,46)"/>
<path d="M0 0 C0.33 0 0.66 0 1 0 C1 2.64 1 5.28 1 8 C-0.32 8 -1.64 8 -3 8 C-2.37240135 5.07120629 -1.41377341 2.63904371 0 0 Z " fill="#17C564" transform="translate(285,344)"/>
<path d="M0 0 C0.66 0 1.32 0 2 0 C2.33 1.98 2.66 3.96 3 6 C3.99 6.33 4.98 6.66 6 7 C5.67 7.99 5.34 8.98 5 10 C4.01 10 3.02 10 2 10 C1.34 6.7 0.68 3.4 0 0 Z " fill="#46C36C" transform="translate(101,313)"/>
<path d="M0 0 C0.66 0 1.32 0 2 0 C1.88637738 1.4800841 1.75877092 2.95910074 1.625 4.4375 C1.52058594 5.67306641 1.52058594 5.67306641 1.4140625 6.93359375 C1.27742188 7.61550781 1.14078125 8.29742187 1 9 C0.01 9.495 0.01 9.495 -1 10 C-0.67 6.7 -0.34 3.4 0 0 Z " fill="#02C75B" transform="translate(52,183)"/>
<path d="M0 0 C0.66 0 1.32 0 2 0 C2.33 2.64 2.66 5.28 3 8 C2.01 7.67 1.02 7.34 0 7 C0 4.69 0 2.38 0 0 Z " fill="#0FC65D" transform="translate(215,120)"/>
<path d="M0 0 C0.66 0 1.32 0 2 0 C2 1.98 2 3.96 2 6 C0.68 6 -0.64 6 -2 6 C-1.125 1.125 -1.125 1.125 0 0 Z " fill="#0FC65F" transform="translate(198,107)"/>
<path d="M0 0 C0.99 0.99 1.98 1.98 3 3 C1.02 5.97 1.02 5.97 -1 9 C-1.68707555 6.50935112 -2 4.62113708 -2 2 C-1.34 2 -0.68 2 0 2 C0 1.34 0 0.68 0 0 Z " fill="#3AC778" transform="translate(299,95)"/>
<path d="M0 0 C3.875 1.75 3.875 1.75 5 4 C4.67 4.99 4.34 5.98 4 7 C3.01 7 2.02 7 1 7 C0.67 4.69 0.34 2.38 0 0 Z " fill="#2ACD72" transform="translate(178,65)"/>
<path d="M0 0 C0.99 0.33 1.98 0.66 3 1 C3 1.66 3 2.32 3 3 C3.99 3 4.98 3 6 3 C5.67 4.65 5.34 6.3 5 8 C2.20127563 5.47211993 0.54226981 3.79588866 0 0 Z " fill="#4BBD6E" transform="translate(118,376)"/>
<path d="M0 0 C0.66 0.33 1.32 0.66 2 1 C1.67 3.64 1.34 6.28 1 9 C0.01 8.67 -0.98 8.34 -2 8 C-1.33333333 5.33333333 -0.66666667 2.66666667 0 0 Z " fill="#05C65B" transform="translate(139,327)"/>
<path d="M0 0 C1.51953125 1.20703125 1.51953125 1.20703125 3 3 C3.07421875 5.26171875 3.07421875 5.26171875 2.6875 7.6875 C2.50767578 8.89986328 2.50767578 8.89986328 2.32421875 10.13671875 C2.21722656 10.75160156 2.11023438 11.36648438 2 12 C1.67 12 1.34 12 1 12 C1.020625 11.030625 1.04125 10.06125 1.0625 9.0625 C1.35618499 6.12534105 1.35618499 6.12534105 0 5 C-0.04063832 3.33382885 -0.042721 1.66611905 0 0 Z " fill="#02C759" transform="translate(283,328)"/>
<path d="M0 0 C1.46726798 3.81489674 0.43336419 6.29011622 -1 10 C-1.66 10 -2.32 10 -3 10 C-2.67 7.36 -2.34 4.72 -2 2 C-1.34 2 -0.68 2 0 2 C0 1.34 0 0.68 0 0 Z " fill="#39C45D" transform="translate(290,298)"/>
<path d="M0 0 C0.66 0.66 1.32 1.32 2 2 C1.625 4.625 1.625 4.625 1 7 C0.01 6.67 -0.98 6.34 -2 6 C-1.34 4.02 -0.68 2.04 0 0 Z " fill="#13C561" transform="translate(303,298)"/>
<path d="M0 0 C0.99 0 1.98 0 3 0 C5.125 4.625 5.125 4.625 4 8 C2 6.25 2 6.25 0 4 C0 2.68 0 1.36 0 0 Z " fill="#03C758" transform="translate(123,84)"/>
<path d="M0 0 C0.33 0 0.66 0 1 0 C1 2.31 1 4.62 1 7 C0.01 7.495 0.01 7.495 -1 8 C-1.625 5.125 -1.625 5.125 -2 2 C-1.34 1.34 -0.68 0.68 0 0 Z " fill="#2EC263" transform="translate(293,376)"/>
<path d="M0 0 C0.66 0.33 1.32 0.66 2 1 C1.34 2.98 0.68 4.96 0 7 C-0.99 6.67 -1.98 6.34 -3 6 C-2.67 4.68 -2.34 3.36 -2 2 C-1.34 2 -0.68 2 0 2 C0 1.34 0 0.68 0 0 Z " fill="#3BC167" transform="translate(305,372)"/>
<path d="M0 0 C-0.33 0.66 -0.66 1.32 -1 2 C-3.92713788 2.94934202 -5.42831368 3.23176473 -8.3125 2.0625 C-8.869375 1.711875 -9.42625 1.36125 -10 1 C-10 0.67 -10 0.34 -10 0 C-6.33694766 -0.74926071 -3.57644848 -1.2380014 0 0 Z " fill="#41C368" transform="translate(80,284)"/>
<path d="M0 0 C0.99 0.495 0.99 0.495 2 1 C2.40729228 3.32156597 2.74438677 5.6568787 3 8 C2.01 8 1.02 8 0 8 C0 5.36 0 2.72 0 0 Z " fill="#31C35A" transform="translate(134,312)"/>
<path d="M0 0 C1.65 0.33 3.3 0.66 5 1 C5 1.99 5 2.98 5 4 C3.35 3.67 1.7 3.34 0 3 C0 2.01 0 1.02 0 0 Z " fill="#0EC557" transform="translate(71,280)"/>
<path d="M0 0 C1.32 0.33 2.64 0.66 4 1 C2.515 4.465 2.515 4.465 1 8 C0.67 8 0.34 8 0 8 C0 5.36 0 2.72 0 0 Z " fill="#33C35D" transform="translate(82,216)"/>
</svg>
