<?xml version="1.0" encoding="UTF-8"?>
<svg version="1.1" xmlns="http://www.w3.org/2000/svg" width="1920" height="1080">
<path d="M0 0 C633.6 0 1267.2 0 1920 0 C1920 356.4 1920 712.8 1920 1080 C1286.4 1080 652.8 1080 0 1080 C0 723.6 0 367.2 0 0 Z " fill="#FEFEFE" transform="translate(0,0)"/>
<path d="M0 0 C0.91620432 -0.00467997 1.83240864 -0.00935994 2.77637672 -0.01418173 C5.81770332 -0.02605812 8.85857315 -0.01670341 11.89990234 -0.00723267 C14.09202333 -0.01130163 16.28414225 -0.01664533 18.47625732 -0.02316284 C24.4100831 -0.03680347 30.34375185 -0.03155117 36.27758026 -0.02202559 C42.4975577 -0.01441216 48.71752201 -0.02147927 54.9375 -0.02618408 C66.04967485 -0.03198564 77.16178813 -0.02268271 88.27395082 -0.00740607 C98.33354804 0.00599577 108.39304137 0.00366725 118.45263672 -0.01016235 C130.15620018 -0.02624468 141.85970308 -0.03217818 153.56327629 -0.02332556 C159.75064461 -0.01865675 165.93794149 -0.01800245 172.12530518 -0.02793503 C177.94320014 -0.0366227 183.76089958 -0.03054972 189.5787735 -0.01325226 C191.70960415 -0.00929706 193.84045134 -0.01040483 195.97127533 -0.01704025 C198.88829639 -0.02528406 201.80469771 -0.01489994 204.72167969 0 C205.55730249 -0.00669217 206.3929253 -0.01338433 207.25387001 -0.02027929 C221.57301636 0.12080226 233.60864659 6.6322129 243.65380859 16.47860718 C255.13347931 28.78653697 256.5004561 42.83127738 256.5378418 58.94052124 C256.54441299 60.18062454 256.55098419 61.42072784 256.55775452 62.69841003 C256.57739825 66.78530122 256.58914011 70.87215337 256.59912109 74.95907593 C256.60317417 76.37411263 256.60729124 77.78914915 256.61147118 79.20418549 C256.63048602 85.85381783 256.64472628 92.50343933 256.65308315 99.15309358 C256.6628502 106.79553252 256.68917123 114.43768144 256.72958404 122.08001828 C256.75985599 128.01068133 256.77456234 133.94126171 256.77786416 139.87200046 C256.7802014 143.40361137 256.78898742 146.93491116 256.81432533 150.46643829 C256.84218352 154.41231834 256.83774117 158.35782338 256.83081055 162.30380249 C256.85002563 164.02960289 256.85002563 164.02960289 256.86962891 165.79026794 C256.77857426 180.08822509 251.21281563 192.93193549 241.51708984 203.43563843 C227.08434545 216.45648391 211.4468264 217.94279541 192.93454933 217.10267448 C187.37901673 216.8722179 181.82017825 216.78454465 176.26123047 216.67196655 C169.2584755 216.52421187 162.2650113 216.33884485 155.26928711 215.98568726 C119.36585325 214.23903393 98.17876901 220.9147689 70.2305603 243.54406738 C65.02317163 247.71500194 59.60677485 251.53320045 54.08276367 255.27133179 C52.78085225 256.171896 52.78085225 256.171896 51.45263958 257.09065342 C46.69835063 260.26143228 43.13735126 262.2982426 37.36083984 262.38095093 C34.59840259 261.21458853 32.98422527 260.25092955 31.23632812 257.81161499 C29.91821111 254.15205754 30.11664153 250.5164828 30.16552734 246.67782593 C30.16835724 245.84003601 30.17118713 245.00224609 30.17410278 244.1390686 C30.18527636 241.46954929 30.21037564 238.80036843 30.23583984 236.13095093 C30.2458733 234.31845578 30.25499851 232.50595536 30.26318359 230.69345093 C30.28520644 226.255821 30.3197168 221.8184433 30.36083984 217.38095093 C29.27778564 217.40189819 28.19473145 217.42284546 27.07885742 217.44442749 C22.99924328 217.5177008 18.91968523 217.56306261 14.83959961 217.60067749 C13.08526782 217.62059665 11.33100068 217.64774227 9.5769043 217.68270874 C-8.38421583 218.03136879 -23.05554717 214.98958284 -36.76025391 202.42001343 C-45.56246078 192.8675145 -50.72762233 180.73708343 -50.78633118 167.77363586 C-50.79348648 166.68192078 -50.80064178 165.59020569 -50.80801392 164.46540833 C-50.81070282 163.28245682 -50.81339172 162.09950531 -50.81616211 160.88070679 C-50.82273331 159.62299469 -50.8293045 158.36528259 -50.83607483 157.06945801 C-50.85702095 152.91158299 -50.86747055 148.75370802 -50.87744141 144.59579468 C-50.88149294 143.15787805 -50.88560998 141.71996162 -50.88979149 140.28204536 C-50.90882496 133.52187929 -50.92305802 126.76172399 -50.93140346 120.00153631 C-50.94115951 112.22947799 -50.96744383 104.4577057 -51.00790435 96.68574804 C-51.03819287 90.65829524 -51.05288444 84.63092383 -51.05618447 78.60339648 C-51.05852106 75.0130401 -51.0672974 71.42298989 -51.09264565 67.83271599 C-51.12053911 63.81728384 -51.11605665 59.80248005 -51.10913086 55.78695679 C-51.12194092 54.6181749 -51.13475098 53.44939301 -51.14794922 52.24519348 C-51.05779135 37.81418169 -46.25062923 25.39631892 -36.51416016 14.69345093 C-26.13271671 5.01188007 -14.10937864 -0.11299631 0 0 Z " fill="#FEFEFE" transform="translate(856.63916015625,406.6190490722656)"/>
<path d="M0 0 C0.91620432 -0.00467997 1.83240864 -0.00935994 2.77637672 -0.01418173 C5.81770332 -0.02605812 8.85857315 -0.01670341 11.89990234 -0.00723267 C14.09202333 -0.01130163 16.28414225 -0.01664533 18.47625732 -0.02316284 C24.4100831 -0.03680347 30.34375185 -0.03155117 36.27758026 -0.02202559 C42.4975577 -0.01441216 48.71752201 -0.02147927 54.9375 -0.02618408 C66.04967485 -0.03198564 77.16178813 -0.02268271 88.27395082 -0.00740607 C98.33354804 0.00599577 108.39304137 0.00366725 118.45263672 -0.01016235 C130.15620018 -0.02624468 141.85970308 -0.03217818 153.56327629 -0.02332556 C159.75064461 -0.01865675 165.93794149 -0.01800245 172.12530518 -0.02793503 C177.94320014 -0.0366227 183.76089958 -0.03054972 189.5787735 -0.01325226 C191.70960415 -0.00929706 193.84045134 -0.01040483 195.97127533 -0.01704025 C198.88829639 -0.02528406 201.80469771 -0.01489994 204.72167969 0 C205.55730249 -0.00669217 206.3929253 -0.01338433 207.25387001 -0.02027929 C221.57301636 0.12080226 233.60864659 6.6322129 243.65380859 16.47860718 C255.13347931 28.78653697 256.5004561 42.83127738 256.5378418 58.94052124 C256.54441299 60.18062454 256.55098419 61.42072784 256.55775452 62.69841003 C256.57739825 66.78530122 256.58914011 70.87215337 256.59912109 74.95907593 C256.60317417 76.37411263 256.60729124 77.78914915 256.61147118 79.20418549 C256.63048602 85.85381783 256.64472628 92.50343933 256.65308315 99.15309358 C256.6628502 106.79553252 256.68917123 114.43768144 256.72958404 122.08001828 C256.75985599 128.01068133 256.77456234 133.94126171 256.77786416 139.87200046 C256.7802014 143.40361137 256.78898742 146.93491116 256.81432533 150.46643829 C256.84218352 154.41231834 256.83774117 158.35782338 256.83081055 162.30380249 C256.85002563 164.02960289 256.85002563 164.02960289 256.86962891 165.79026794 C256.77857426 180.08822509 251.21281563 192.93193549 241.51708984 203.43563843 C227.08434545 216.45648391 211.4468264 217.94279541 192.93454933 217.10267448 C187.37901673 216.8722179 181.82017825 216.78454465 176.26123047 216.67196655 C169.2584755 216.52421187 162.2650113 216.33884485 155.26928711 215.98568726 C119.36585325 214.23903393 98.17876901 220.9147689 70.2305603 243.54406738 C65.02317163 247.71500194 59.60677485 251.53320045 54.08276367 255.27133179 C52.78085225 256.171896 52.78085225 256.171896 51.45263958 257.09065342 C46.69835063 260.26143228 43.13735126 262.2982426 37.36083984 262.38095093 C34.59840259 261.21458853 32.98422527 260.25092955 31.23632812 257.81161499 C29.91821111 254.15205754 30.11664153 250.5164828 30.16552734 246.67782593 C30.16835724 245.84003601 30.17118713 245.00224609 30.17410278 244.1390686 C30.18527636 241.46954929 30.21037564 238.80036843 30.23583984 236.13095093 C30.2458733 234.31845578 30.25499851 232.50595536 30.26318359 230.69345093 C30.28520644 226.255821 30.3197168 221.8184433 30.36083984 217.38095093 C29.27778564 217.40189819 28.19473145 217.42284546 27.07885742 217.44442749 C22.99924328 217.5177008 18.91968523 217.56306261 14.83959961 217.60067749 C13.08526782 217.62059665 11.33100068 217.64774227 9.5769043 217.68270874 C-8.38421583 218.03136879 -23.05554717 214.98958284 -36.76025391 202.42001343 C-45.56246078 192.8675145 -50.72762233 180.73708343 -50.78633118 167.77363586 C-50.79348648 166.68192078 -50.80064178 165.59020569 -50.80801392 164.46540833 C-50.81070282 163.28245682 -50.81339172 162.09950531 -50.81616211 160.88070679 C-50.82273331 159.62299469 -50.8293045 158.36528259 -50.83607483 157.06945801 C-50.85702095 152.91158299 -50.86747055 148.75370802 -50.87744141 144.59579468 C-50.88149294 143.15787805 -50.88560998 141.71996162 -50.88979149 140.28204536 C-50.90882496 133.52187929 -50.92305802 126.76172399 -50.93140346 120.00153631 C-50.94115951 112.22947799 -50.96744383 104.4577057 -51.00790435 96.68574804 C-51.03819287 90.65829524 -51.05288444 84.63092383 -51.05618447 78.60339648 C-51.05852106 75.0130401 -51.0672974 71.42298989 -51.09264565 67.83271599 C-51.12053911 63.81728384 -51.11605665 59.80248005 -51.10913086 55.78695679 C-51.12194092 54.6181749 -51.13475098 53.44939301 -51.14794922 52.24519348 C-51.05779135 37.81418169 -46.25062923 25.39631892 -36.51416016 14.69345093 C-26.13271671 5.01188007 -14.10937864 -0.11299631 0 0 Z M-24.63916016 28.38095093 C-29.17810571 34.61106677 -32.87867606 41.01393074 -32.90658569 48.85023499 C-32.91511566 49.93649673 -32.92364563 51.02275848 -32.93243408 52.14193726 C-32.93152771 53.32384644 -32.93062134 54.50575562 -32.9296875 55.72348022 C-32.93640472 56.9761116 -32.94312195 58.22874298 -32.95004272 59.51933289 C-32.96577529 62.94942519 -32.97239728 66.37927531 -32.9736743 69.80938697 C-32.9750983 71.9561394 -32.97937272 74.10286665 -32.98466873 76.24961281 C-33.00316515 83.75003284 -33.01134028 91.25038189 -33.00976562 98.75082397 C-33.00856594 105.72351597 -33.02963493 112.69589757 -33.06125295 119.66851109 C-33.0874841 125.66873325 -33.09812999 131.66885449 -33.09685481 137.66913348 C-33.09634696 141.24653561 -33.10193051 144.82366208 -33.12321091 148.4010067 C-33.14633867 152.39803307 -33.13703088 156.39437369 -33.125 160.39144897 C-33.13623901 161.563237 -33.14747803 162.73502502 -33.15905762 163.94232178 C-33.0864242 173.46946321 -31.06296159 181.50426854 -24.51416016 188.69345093 C-23.48935547 189.86327515 -23.48935547 189.86327515 -22.44384766 191.05673218 C-14.72602506 197.45242082 -7.53559374 199.10794242 2.31787109 198.98251343 C3.42386154 198.99051971 4.52985199 198.998526 5.6693573 199.0067749 C9.17106648 199.02969312 12.67160118 199.0204279 16.17333984 199.00595093 C19.69270895 199.00210015 23.21156902 199.0055378 26.73088074 199.02655029 C28.9122564 199.03861956 31.09377578 199.03600335 33.27510071 199.0168457 C42.50629384 199.05098811 42.50629384 199.05098811 46.36083984 202.38095093 C47.83726344 205.33379812 47.58356923 208.06544076 47.67724609 211.35751343 C47.70841774 212.38538467 47.70841774 212.38538467 47.74021912 213.434021 C47.80564169 215.62456162 47.86456538 217.81522281 47.92333984 220.00595093 C47.96653203 221.49033843 48.01014654 222.97471371 48.05419922 224.45907593 C48.16131538 228.09957177 48.26260347 231.74020344 48.36083984 235.38095093 C51.81504791 234.09825647 54.77348936 232.60782613 57.84057617 230.57113647 C58.69529007 230.00682419 59.55000397 229.4425119 60.43061829 228.86109924 C61.34216171 228.25276749 62.25370514 227.64443573 63.19287109 227.01766968 C64.14344894 226.38867264 65.09402679 225.7596756 66.07341003 225.11161804 C69.10956088 223.10147712 72.14158254 221.08521083 75.17333984 219.06845093 C78.19517488 217.06361902 81.21785611 215.06007323 84.24113464 213.05741882 C86.11984835 211.81236134 87.99759817 210.56584776 89.8742218 209.31764221 C90.73839218 208.74387344 91.60256256 208.17010468 92.49291992 207.57894897 C93.24172928 207.08090256 93.99053864 206.58285614 94.76203918 206.06971741 C95.6196434 205.51242447 96.47724762 204.95513153 97.36083984 204.38095093 C97.92257149 203.95481066 98.48430313 203.52867039 99.06305695 203.08961678 C104.73790621 199.04221971 109.3571988 198.68614231 116.20800781 198.8008728 C117.26600586 198.79842056 118.32400391 198.79596832 119.4140625 198.79344177 C121.70025076 198.79127696 123.98647254 198.80049388 126.27257919 198.81993103 C129.89725778 198.85006868 133.52075907 198.84894863 137.14553833 198.83981323 C146.14673563 198.82355511 155.14756724 198.86087024 164.14868164 198.89639282 C171.76046254 198.92438607 179.37174224 198.93199055 186.98355484 198.91282654 C190.54338037 198.91221124 194.10215821 198.9413377 197.66183472 198.97164917 C199.85951929 198.96957339 202.05720313 198.96610604 204.25488281 198.96102905 C205.23494293 198.97750992 206.21500305 198.99399078 207.22476196 199.01097107 C215.92284461 198.93538852 222.68624853 195.97708832 229.17333984 190.19345093 C234.71728193 184.23010897 238.47519957 176.37099283 238.50128174 168.22137451 C238.50699188 167.15324524 238.51270203 166.08511597 238.51858521 164.98461914 C238.51970306 163.81264984 238.52082092 162.64068054 238.52197266 161.43319702 C238.52693756 160.19875854 238.53190247 158.96432007 238.53701782 157.69247437 C238.54912984 154.30371022 238.5565861 150.91500783 238.56102848 147.52622938 C238.56396173 145.4066399 238.56806713 143.2870558 238.57253265 141.16746902 C238.58620912 134.52903499 238.59587367 127.8906133 238.59973454 121.25216615 C238.60420851 113.60233974 238.62172482 105.95269262 238.65073514 98.3029207 C238.67240289 92.382595 238.68244162 86.46231954 238.68377566 80.54195464 C238.68482054 77.00986754 238.69065959 73.47794894 238.70859528 69.94590378 C238.72824728 65.99890207 238.72376672 62.05212133 238.71728516 58.10507202 C238.72649994 56.94524811 238.73571472 55.78542419 238.74520874 54.5904541 C238.6907283 43.97592975 236.21509721 35.61536419 229.36083984 27.38095093 C221.89166062 20.14813813 213.25156477 17.91641383 203.06971741 18 C202.17886883 17.99532003 201.28802025 17.99064006 200.37017626 17.98581827 C197.40865714 17.97392792 194.44760589 17.98330213 191.48608398 17.99276733 C189.35322298 17.98869896 187.22036408 17.98335559 185.08750916 17.97683716 C179.3106426 17.96318866 173.53393721 17.96845232 167.75706792 17.97797441 C161.70257851 17.98558473 155.64810264 17.9785215 149.59361267 17.97381592 C139.42623424 17.96836196 129.25892123 17.97554015 119.09155273 17.98983765 C107.34961292 18.00615903 95.60782944 18.00087785 83.86589342 17.98435843 C73.77220737 17.97072812 63.67856828 17.96883161 53.584876 17.97667444 C47.5618127 17.981343 41.53882278 17.98199832 35.51576424 17.97206497 C29.85136567 17.9633753 24.18716788 17.9694539 18.52279091 17.98674774 C16.4484007 17.99070207 14.3739935 17.98959667 12.29961014 17.98295975 C9.45916344 17.97471231 6.61935256 17.98510433 3.77894592 18 C2.96598669 17.99330783 2.15302745 17.98661567 1.31543308 17.97972071 C-8.82832985 18.08228368 -17.49728692 21.04789944 -24.63916016 28.38095093 Z " fill="#26C461" transform="translate(856.63916015625,406.6190490722656)"/>
<path d="M0 0 C6.04778306 4.82263363 10.590173 11.11431055 11.4921875 18.890625 C11.67845726 28.67526591 9.93787965 34.94621297 3.80859375 42.56640625 C-4.14000365 48.85134373 -11.88700062 50.38969699 -21.87890625 49.69140625 C-28.54061184 48.28836046 -33.63962696 44.87464402 -37.546875 39.3203125 C-41.73318475 32.62818314 -43.85929494 26.71658798 -42.87890625 18.69140625 C-40.63361005 10.18362727 -35.96405415 2.94080426 -28.44140625 -1.80859375 C-19.88463095 -5.52820563 -7.92112293 -4.68855674 0 0 Z " fill="#25C460" transform="translate(902.87890625,492.30859375)"/>
<path d="M0 0 C8.73298006 4.43943855 13.22998057 10.5336917 16.2734375 19.6640625 C17.47246484 28.51258073 15.34646661 35.36638537 10.2734375 42.6640625 C3.92317237 49.26741791 -2.47522762 51.63912194 -11.5390625 52.1015625 C-18.87493547 51.9456752 -24.34663998 49.71236998 -29.796875 44.796875 C-36.16664529 37.94737305 -38.22996365 31.75621545 -37.94140625 22.453125 C-37.33952515 14.63961404 -33.36450793 8.04610683 -27.671875 2.75390625 C-19.68099361 -2.93656989 -9.09775975 -3.26146104 0 0 Z " fill="#24C460" transform="translate(1042.7265625,490.3359375)"/>
<path d="M0 0 C7.83389918 4.70559716 11.91808264 11.21406307 14.375 19.9375 C15.38169827 27.86524891 12.70608733 34.90292578 8.75 41.75 C1.27258771 48.63709027 -6.15994655 51.36343966 -16.19140625 51.28515625 C-22.68266461 50.62790711 -27.37644847 47.68637341 -32.4375 43.75 C-38.82313464 35.53989832 -40.85438376 28.3462825 -39.625 17.9375 C-37.49907003 10.73295955 -33.02080349 4.17388251 -26.75 -0.0625 C-18.8341828 -4.00031769 -7.94985256 -3.62012953 0 0 Z " fill="#24C460" transform="translate(972.625,491.0625)"/>
</svg>
